<?xml version="1.0" encoding="UTF-8"?>
<svg version="1.1" xmlns="http://www.w3.org/2000/svg" width="500" height="284">
<path d="M0 0 C1.98782538 1.98782538 1.16744977 5.94089402 1.17700195 8.66235352 C1.18357315 9.46585236 1.19014435 10.2693512 1.19691467 11.09719849 C1.21672494 13.77443532 1.22833754 16.4516154 1.23828125 19.12890625 C1.24235678 20.04578657 1.2464323 20.96266689 1.25063133 21.90733147 C1.27154129 26.77570243 1.28581226 31.64404494 1.29516602 36.51245117 C1.30614135 41.50511916 1.34042227 46.49733036 1.38033772 51.4898386 C1.40672007 55.3550438 1.41487763 59.22014477 1.41844749 63.08543205 C1.42327098 64.92272913 1.43476129 66.76002292 1.45348549 68.59723091 C1.68369032 92.71670743 -4.62462739 112.7136687 -21.52734375 130.6875 C-37.00681509 145.59870881 -57.54146276 153.5851966 -79.01147461 153.35327148 C-96.78179812 152.75048483 -112.90141244 146.62144265 -127 136 C-128.8984375 133.72265625 -128.8984375 133.72265625 -130 132 C-128.741875 132.04640625 -127.48375 132.0928125 -126.1875 132.140625 C-106.73414558 132.64305377 -90.45850735 129.38095822 -75.1875 116.3125 C-63.43405255 104.95254496 -56.1749564 90.07749932 -55.8581543 73.56201172 C-55.84350894 71.85126227 -55.83238909 70.14048013 -55.82421875 68.4296875 C-55.80100868 66.54425981 -55.77689087 64.65884313 -55.75195312 62.7734375 C-55.7169976 59.83130636 -55.68756686 56.88957825 -55.67407227 53.94726562 C-55.5920421 38.95467538 -55.29323943 25.22845985 -44 14 C-31.86774523 3.72326655 -15.80852033 -0.79042602 0 0 Z " fill="#013A67" transform="translate(168,62)"/>
<path d="M0 0 C4.7490757 3.59967464 8.81523187 8.01268964 10 14 C10.75567353 21.91568019 11.14724189 29.53332427 6 36 C0.18850049 42.48054347 -5.89899601 45.45346386 -14.5 46.375 C-23.01748791 45.46241201 -29.33909111 42.55540917 -35 36 C-39.42815171 29.5012196 -39.85968727 22.67270884 -39 15 C-37.07049146 8.18996985 -32.78052521 2.23082231 -26.63671875 -1.39453125 C-17.22957819 -5.5348435 -8.97491922 -5.04375625 0 0 Z " fill="#016CB1" transform="translate(158,14)"/>
<path d="M0 0 C3.63 0 7.26 0 11 0 C11 50.16 11 100.32 11 152 C7.37 152 3.74 152 0 152 C0 101.84 0 51.68 0 0 Z " fill="#003A67" transform="translate(192,56)"/>
<path d="M0 0 C0.85152125 8.93223297 1.11901964 17.7889566 1.04459953 26.75566101 C1.0268338 28.96980453 1.01679462 31.18387238 1.00868225 33.39807129 C0.98455082 39.68325933 0.94881108 45.96834383 0.90405273 52.25341797 C0.87700375 56.12635132 0.86013965 59.99922754 0.84918404 63.87223816 C0.84305649 65.32962671 0.83315854 66.78700532 0.81910515 68.24433899 C0.66666138 84.18295783 1.35305916 98.08835596 13 110 C15.91753732 112.14018336 18.91767274 114.1062826 22 116 C21.67 116.66 21.34 117.32 21 118 C10.50310815 116.27919806 0.47271799 111.73816929 -6 103 C-13.44819804 90.65530139 -14.39078426 78.9817269 -14.6171875 64.9609375 C-14.63033115 64.15048603 -14.64347481 63.34003456 -14.65701675 62.50502396 C-14.72181564 58.22412328 -14.77083553 53.94331485 -14.81005859 49.66210938 C-14.84581274 46.13232608 -14.91567666 42.60570157 -15.01513672 39.07714844 C-15.13567168 34.79343742 -15.19701092 30.51267002 -15.21640396 26.22734451 C-15.23347344 24.60278463 -15.27101949 22.97829981 -15.3298912 21.35471725 C-15.50266053 16.32410581 -15.50064703 11.83534272 -14 7 C-10.26068621 3.39088527 -5.40025367 0 0 0 Z " fill="#036CAF" transform="translate(27,70)"/>
<path d="M0 0 C0.00142502 0.9004303 0.00285004 1.8008606 0.00431824 2.72857666 C0.02222993 11.26045756 0.06408392 19.79182528 0.13209057 28.32345963 C0.16622009 32.70854634 0.19144851 37.09328987 0.19555664 41.47851562 C0.19986999 45.71935004 0.22858077 49.95941211 0.27343178 54.20000458 C0.28631062 55.80887077 0.29074898 57.41782985 0.28615379 59.02674103 C0.25672277 72.47408813 2.40527341 83.11045716 11.99609375 93.15625 C14.51324807 95.47222824 17.07182522 97.24309513 20 99 C20 99.33 20 99.66 20 100 C10.65346747 100.62310217 0.91873973 98.52605881 -6.5390625 92.5234375 C-19.40728426 79.10470358 -16.08548515 53.42227994 -16.125 36.25 C-16.12967285 34.95989014 -16.1343457 33.66978027 -16.13916016 32.34057617 C-16.13288397 28.55868967 -16.07400938 24.78111718 -16 21 C-15.99746216 19.06229736 -15.99746216 19.06229736 -15.99487305 17.08544922 C-15.75383893 8.04109857 -15.75383893 8.04109857 -13.73144531 5.24804688 C-12.12890625 4.1015625 -12.12890625 4.1015625 -8.5625 2.625 C-7.38816406 2.10164063 -6.21382812 1.57828125 -5.00390625 1.0390625 C-2 0 -2 0 0 0 Z " fill="#016CB1" transform="translate(51,85)"/>
<path d="M0 0 C3.3 0 6.6 0 10 0 C11.65 6.93 13.3 13.86 15 21 C15.99 18.03 16.98 15.06 18 12 C19.33333333 8 20.66666667 4 22 0 C25.3 0 28.6 0 32 0 C33.98 6.93 35.96 13.86 38 21 C39.27442372 14.83778852 39.27442372 14.83778852 40.54272461 8.67431641 C40.70264893 7.90780762 40.86257324 7.14129883 41.02734375 6.3515625 C41.18968506 5.56604004 41.35202637 4.78051758 41.51928711 3.97119141 C42 2 42 2 43 0 C45.97 0 48.94 0 52 0 C50.4705027 8.14186947 48.48454611 16.1155851 46.375 24.125 C46.05015625 25.36765625 45.7253125 26.6103125 45.390625 27.890625 C44.5962972 30.92776069 43.79936874 33.96418794 43 37 C39.37 37 35.74 37 32 37 C30.02 30.07 28.04 23.14 26 16 C24.02 22.93 22.04 29.86 20 37 C16.37 37 12.74 37 9 37 C7.71519002 32.05287412 6.43352133 27.10494933 5.15478516 22.15625 C4.71912983 20.47210593 4.28260974 18.78818531 3.84521484 17.10449219 C3.21746159 14.68742865 2.59280029 12.26958435 1.96875 9.8515625 C1.77188599 9.0963028 1.57502197 8.34104309 1.37219238 7.56289673 C0 2.22774341 0 2.22774341 0 0 Z " fill="#053A65" transform="translate(347,112)"/>
<path d="M0 0 C4.29 0 8.58 0 13 0 C14.1463994 3.10395868 15.29214301 6.20815669 16.4375 9.3125 C16.92573242 10.63411133 16.92573242 10.63411133 17.42382812 11.98242188 C17.73642578 12.82998047 18.04902344 13.67753906 18.37109375 14.55078125 C18.8031311 15.72120972 18.8031311 15.72120972 19.24389648 16.9152832 C19.85527963 18.60097925 20.43295851 20.29887553 21 22 C21.95972174 19.45884998 22.91781494 16.91710543 23.875 14.375 C24.14441406 13.66214844 24.41382813 12.94929687 24.69140625 12.21484375 C24.95566406 11.51230469 25.21992188 10.80976563 25.4921875 10.0859375 C25.73308105 9.4470459 25.97397461 8.8081543 26.22216797 8.14990234 C27.19862315 5.45101211 28.09239473 2.7228158 29 0 C33.29 0 37.58 0 42 0 C42 12.21 42 24.42 42 37 C39.03 37 36.06 37 33 37 C32.67 30.4 32.34 23.8 32 17 C29.69 23.6 27.38 30.2 25 37 C22.36 37 19.72 37 17 37 C15.85340673 33.8961135 14.70785685 30.79184294 13.5625 27.6875 C13.23701172 26.80642578 12.91152344 25.92535156 12.57617188 25.01757812 C12.10727539 23.74624023 12.10727539 23.74624023 11.62890625 22.44921875 C11.1968689 21.27879028 11.1968689 21.27879028 10.75610352 20.0847168 C10.14472037 18.39902075 9.56704149 16.70112447 9 15 C8.67 22.26 8.34 29.52 8 37 C5.36 37 2.72 37 0 37 C0 24.79 0 12.58 0 0 Z " fill="#073A64" transform="translate(374,161)"/>
<path d="M0 0 C0.00586624 0.67492493 0.01173248 1.34984985 0.01777649 2.04522705 C0.08209623 9.11928428 0.16661227 16.19290269 0.26245117 23.26660156 C0.29554638 25.900657 0.32362538 28.53478073 0.34643555 31.16894531 C0.38026553 34.97229912 0.43259604 38.77503569 0.48828125 42.578125 C0.49467117 43.74112122 0.5010611 44.90411743 0.50764465 46.10235596 C0.68631557 56.21428449 1.87944475 65.84743553 7.81640625 74.28125 C9.07852762 76.11403351 10.04485067 77.99286592 11 80 C4.26702163 80.56108153 -0.505424 78.95633096 -5.69921875 74.5625 C-14.78750407 65.03925896 -14.82064987 52.38665583 -15 40 C-15.01514648 39.04818848 -15.03029297 38.09637695 -15.04589844 37.11572266 C-15.08614253 34.09790675 -15.11029696 31.08054484 -15.125 28.0625 C-15.12983398 27.12825195 -15.13466797 26.19400391 -15.13964844 25.23144531 C-15.13284357 22.48519502 -15.07723176 19.74512757 -15 17 C-14.98598145 16.00750244 -14.97196289 15.01500488 -14.95751953 13.99243164 C-14.63503765 6.63193486 -14.63503765 6.63193486 -11.6015625 3.61328125 C-10.12816406 2.96939453 -10.12816406 2.96939453 -8.625 2.3125 C-7.15933594 1.62607422 -7.15933594 1.62607422 -5.6640625 0.92578125 C-3 0 -3 0 0 0 Z " fill="#036CAF" transform="translate(73,99)"/>
<path d="M0 0 C4.56258585 2.63226107 6.89297901 5.54867831 9.5625 10.125 C11.29443186 17.05272745 10.94828226 23.67142975 7.25 29.875 C2.35992714 34.87826899 -0.92618274 37.02809839 -8 37.125 C-13.00875129 37.07529905 -16.61076491 36.95289276 -20.75 33.875 C-26.0103625 28.32239514 -27.21728505 23.12753393 -27.06640625 15.6640625 C-26.43934976 10.13667568 -24.25628678 6.34266404 -20.3125 2.5 C-13.61154147 -1.74938834 -7.57852043 -2.27355613 0 0 Z M-14.75 9.875 C-17.725628 14.33844199 -17.48299733 18.64475866 -16.75 23.875 C-14.91348401 27.21321811 -14.91348401 27.21321811 -11.75 28.875 C-8.20728358 29.62511367 -8.20728358 29.62511367 -4.75 28.875 C-2.38502561 27.00791495 -1.08969285 25.55438569 0.25 22.875 C0.76812037 18.07601625 0.91497913 14.1282299 -1.375 9.8125 C-6.16051082 5.90853065 -9.96521818 6.15350303 -14.75 9.875 Z " fill="#053A65" transform="translate(278.75,112.125)"/>
<path d="M0 0 C3.17625 -0.0825 6.3525 -0.165 9.625 -0.25 C10.6145166 -0.28641602 11.6040332 -0.32283203 12.62353516 -0.36035156 C18.40954762 -0.43286678 21.5990505 0.15451015 26 4 C27.73994279 7.47988558 27.5976415 11.2043407 27 15 C25.57493025 17.45650135 24.05967593 18.99181597 22 21 C22.56589844 21.90363281 23.13179688 22.80726563 23.71484375 23.73828125 C24.4558918 24.92958635 25.19676827 26.12099819 25.9375 27.3125 C26.49727539 28.20485352 26.49727539 28.20485352 27.06835938 29.11523438 C28.68824194 31.72747744 30.02407058 34.07221173 31 37 C27.52272366 37.5566391 24.45451935 37.77054399 21 37 C18.35382719 34.348268 16.78975876 31.26433988 15 28 C13.00189477 25.77988308 11.64158079 24.32079039 9 23 C9 27.62 9 32.24 9 37 C6.03 37 3.06 37 0 37 C0 24.79 0 12.58 0 0 Z M9 7 C9 9.97 9 12.94 9 16 C13.16938808 16.33467338 13.16938808 16.33467338 16.9375 14.8125 C18.24676393 12.97087934 18.24676393 12.97087934 17.8125 10.375 C17.25355766 7.83447997 17.25355766 7.83447997 15 7 C13.00039988 6.960008 10.99952758 6.95653201 9 7 Z " fill="#043A66" transform="translate(436,112)"/>
<path d="M0 0 C3.196875 -0.061875 6.39375 -0.12375 9.6875 -0.1875 C11.18543091 -0.22846802 11.18543091 -0.22846802 12.71362305 -0.27026367 C17.62184276 -0.31625505 21.04283236 -0.26306767 25 3 C27.56632517 6.42176689 27.36435051 9.84640421 27 14 C24.8 18.6 24.8 18.6 22 20 C24.08554661 24.27233334 26.43454587 28.39275412 28.7578125 32.5390625 C30 35 30 35 30 37 C26.43400455 37.77490444 23.52755857 38.04024355 20 37 C17.67211748 34.09123873 16.15428005 31.18723849 14.5703125 27.8203125 C13.11861385 24.58938389 13.11861385 24.58938389 9 23 C9 27.62 9 32.24 9 37 C6.03 37 3.06 37 0 37 C0 24.79 0 12.58 0 0 Z M9 7 C9 9.97 9 12.94 9 16 C11.91652174 16.16681109 11.91652174 16.16681109 15 16 C17.2491908 14.17296773 17.2491908 14.17296773 17.25 11.5 C17.2491908 8.82703227 17.2491908 8.82703227 15 7 C11.91652174 6.83318891 11.91652174 6.83318891 9 7 Z " fill="#0A3B62" transform="translate(318,63)"/>
<path d="M0 0 C1.51400391 0.01740234 1.51400391 0.01740234 3.05859375 0.03515625 C4.07050781 0.04417969 5.08242188 0.05320312 6.125 0.0625 C7.29869141 0.07990234 7.29869141 0.07990234 8.49609375 0.09765625 C10.21109888 4.88271821 11.91992555 9.6699239 13.62304688 14.45922852 C14.20338063 16.08841491 14.78540256 17.71700097 15.36914062 19.3449707 C16.20756744 21.68415301 17.03991312 24.02542218 17.87109375 26.3671875 C18.1335791 27.09541214 18.39606445 27.82363678 18.66650391 28.57392883 C19.71608527 31.54675278 20.49609375 33.91991243 20.49609375 37.09765625 C17.19609375 37.09765625 13.89609375 37.09765625 10.49609375 37.09765625 C9.83609375 35.11765625 9.17609375 33.13765625 8.49609375 31.09765625 C4.20609375 30.76765625 -0.08390625 30.43765625 -4.50390625 30.09765625 C-4.83390625 32.07765625 -5.16390625 34.05765625 -5.50390625 36.09765625 C-6.50390625 37.09765625 -6.50390625 37.09765625 -8.5703125 37.1953125 C-9.39402344 37.18371094 -10.21773438 37.17210937 -11.06640625 37.16015625 C-11.89269531 37.15113281 -12.71898437 37.14210937 -13.5703125 37.1328125 C-14.20839844 37.12121094 -14.84648437 37.10960937 -15.50390625 37.09765625 C-14.87674178 32.46168836 -13.65134899 28.37006589 -12.03515625 23.984375 C-11.79478638 23.32935501 -11.5544165 22.67433502 -11.3067627 21.99946594 C-10.80158921 20.62623821 -10.29385962 19.25394834 -9.78369141 17.88256836 C-9.0005699 15.77618237 -8.22625471 13.66671187 -7.453125 11.55664062 C-3.23782088 0.12628007 -3.23782088 0.12628007 0 0 Z M1.49609375 10.09765625 C0.50609375 14.05765625 -0.48390625 18.01765625 -1.50390625 22.09765625 C1.13609375 22.09765625 3.77609375 22.09765625 6.49609375 22.09765625 C6.04758717 20.28269963 5.58699804 18.47072491 5.12109375 16.66015625 C4.73824219 15.14615234 4.73824219 15.14615234 4.34765625 13.6015625 C3.77035421 10.94195301 3.77035421 10.94195301 1.49609375 10.09765625 Z " fill="#043A66" transform="translate(412.50390625,111.90234375)"/>
<path d="M0 0 C2.97 0 5.94 0 9 0 C9.01458252 0.74161377 9.02916504 1.48322754 9.04418945 2.24731445 C9.11859457 5.60290631 9.21528006 8.95749494 9.3125 12.3125 C9.33505859 13.47974609 9.35761719 14.64699219 9.38085938 15.84960938 C9.41630859 16.96787109 9.45175781 18.08613281 9.48828125 19.23828125 C9.51446533 20.26993408 9.54064941 21.30158691 9.56762695 22.36450195 C9.80472765 25.00785297 9.80472765 25.00785297 11.30151367 26.84838867 C14.05201308 28.71328815 16.7857114 28.18194086 20 28 C20.94466756 24.75921875 21.19098828 21.72774345 21.31640625 18.359375 C21.35830078 17.28945312 21.40019531 16.21953125 21.44335938 15.1171875 C21.48267578 14.00601563 21.52199219 12.89484375 21.5625 11.75 C21.60568359 10.62335938 21.64886719 9.49671875 21.69335938 8.3359375 C21.79932015 5.55741046 21.90139142 2.77879609 22 0 C24.97 0 27.94 0 31 0 C31.08765069 4.02069425 31.14061018 8.0411401 31.1875 12.0625 C31.21263672 13.19623047 31.23777344 14.32996094 31.26367188 15.49804688 C31.32974845 23.05280239 31.0554749 28.48157436 25.9375 34.375 C21.1228459 38.41309698 14.98444834 37.51690491 9 37 C3.84816534 34.69055688 2.14883195 32.10955549 0 27 C-0.34057617 23.84033203 -0.34057617 23.84033203 -0.29296875 20.5078125 C-0.28330078 19.30898437 -0.27363281 18.11015625 -0.26367188 16.875 C-0.23853516 15.6375 -0.21339844 14.4 -0.1875 13.125 C-0.17396484 11.86429688 -0.16042969 10.60359375 -0.14648438 9.3046875 C-0.11123435 6.20268546 -0.06195504 3.10156466 0 0 Z " fill="#033A66" transform="translate(223,63)"/>
<path d="M0 0 C3.1875 1.625 3.1875 1.625 5.1875 3.625 C5.1875 4.615 5.1875 5.605 5.1875 6.625 C3 8.4375 3 8.4375 0.1875 9.625 C-2.3125 8.8125 -2.3125 8.8125 -4.8125 7.625 C-7.52136941 7.45701738 -7.52136941 7.45701738 -9.8125 7.625 C-9.8125 8.945 -9.8125 10.265 -9.8125 11.625 C-9.14863281 11.78355469 -8.48476562 11.94210938 -7.80078125 12.10546875 C-2.16991497 13.59333269 1.43707284 14.90672067 5.1875 19.625 C6.94411404 23.13822808 5.98982434 26.88513332 5.1875 30.625 C3.60245419 33.86400665 2.37651249 35.16094297 -0.984375 36.47265625 C-7.22152673 38.09005429 -12.08735133 37.58668587 -17.8125 34.625 C-20.375 32.625 -20.375 32.625 -21.8125 30.625 C-21.8125 29.635 -21.8125 28.645 -21.8125 27.625 C-19.5025 26.635 -17.1925 25.645 -14.8125 24.625 C-14.11125 25.305625 -13.41 25.98625 -12.6875 26.6875 C-9.9295551 28.97789652 -9.9295551 28.97789652 -6.5 28.375 C-5.613125 28.1275 -4.72625 27.88 -3.8125 27.625 C-3.85397007 25.65849365 -3.85397007 25.65849365 -4.8125 23.625 C-7.48766413 22.40113225 -7.48766413 22.40113225 -10.6875 21.625 C-16.36600021 20.0924891 -16.36600021 20.0924891 -18.640625 17.7109375 C-20.36926616 14.63395624 -20.69124449 12.14140978 -20.8125 8.625 C-19.28352022 4.44042377 -17.65791472 1.90821499 -13.8125 -0.375 C-8.97954487 -1.98598504 -4.70465637 -1.94472226 0 0 Z " fill="#083A63" transform="translate(243.8125,161.375)"/>
<path d="M0 0 C2.625 1.625 2.625 1.625 4.625 3.625 C4.625 4.615 4.625 5.605 4.625 6.625 C2.375 8.4375 2.375 8.4375 -0.375 9.625 C-2.3125 8.8125 -2.3125 8.8125 -4.375 7.625 C-7.54195956 7.45775263 -7.54195956 7.45775263 -10.375 7.625 C-10.375 8.945 -10.375 10.265 -10.375 11.625 C-9.71113281 11.78355469 -9.04726563 11.94210938 -8.36328125 12.10546875 C-2.83677577 13.56575706 1.24305443 14.71572417 4.625 19.625 C6.00345377 23.82104797 5.92944349 26.77576289 4.4375 30.9375 C1.60031514 35.14436032 -0.07314522 36.31608531 -5.0625 37.5 C-10.99531727 38.04337953 -16.27702883 36.26244091 -20.9375 32.625 C-22.375 30.625 -22.375 30.625 -22.375 27.625 C-20.065 26.635 -17.755 25.645 -15.375 24.625 C-14.67375 25.305625 -13.9725 25.98625 -13.25 26.6875 C-10.4920551 28.97789652 -10.4920551 28.97789652 -7.0625 28.375 C-6.175625 28.1275 -5.28875 27.88 -4.375 27.625 C-4.50347642 25.64330901 -4.50347642 25.64330901 -5.375 23.625 C-7.52850918 22.66187074 -7.52850918 22.66187074 -10.125 22.1875 C-14.80538752 20.93537916 -17.49274558 19.71594175 -20.375 15.625 C-21.56891511 11.5209168 -21.65749307 9.39813893 -20.1875 5.375 C-15.43111215 -1.84158847 -7.77210328 -3.16641245 0 0 Z " fill="#053A65" transform="translate(307.375,161.375)"/>
<path d="M0 0 C2.625 1.625 2.625 1.625 4.625 3.625 C4.625 4.615 4.625 5.605 4.625 6.625 C1.16 8.11 1.16 8.11 -2.375 9.625 C-3.035 8.965 -3.695 8.305 -4.375 7.625 C-7.45847826 7.45818891 -7.45847826 7.45818891 -10.375 7.625 C-10.705 8.615 -11.035 9.605 -11.375 10.625 C-10.47136719 10.93953125 -9.56773437 11.2540625 -8.63671875 11.578125 C-7.45722656 12.00609375 -6.27773437 12.4340625 -5.0625 12.875 C-3.30486328 13.50148438 -3.30486328 13.50148438 -1.51171875 14.140625 C1.70331939 15.66206273 2.93802909 16.55251002 4.625 19.625 C5.65459209 24.18462211 6.00236189 26.51387889 4.5 30.9375 C2.39624307 33.95288493 0.9021945 35.01196952 -2.375 36.625 C-8.73832564 37.49856557 -14.99400521 37.44833841 -20.375 33.625 C-22.375 30.625 -22.375 30.625 -22.375 27.625 C-20.065 26.635 -17.755 25.645 -15.375 24.625 C-14.67375 25.305625 -13.9725 25.98625 -13.25 26.6875 C-10.4920551 28.97789652 -10.4920551 28.97789652 -7.0625 28.375 C-6.175625 28.1275 -5.28875 27.88 -4.375 27.625 C-4.50347642 25.64330901 -4.50347642 25.64330901 -5.375 23.625 C-7.52850918 22.66187074 -7.52850918 22.66187074 -10.125 22.1875 C-14.80538752 20.93537916 -17.49274558 19.71594175 -20.375 15.625 C-21.34185978 12.01539015 -21.59594728 9.57507329 -20.75 5.9375 C-16.18503464 -1.73994174 -7.85010308 -3.19819014 0 0 Z " fill="#063A64" transform="translate(244.375,112.375)"/>
<path d="M0 0 C2.61617384 1.70355506 4.05405328 3.11833584 5.6875 5.75 C3.7075 7.07 1.7275 8.39 -0.3125 9.75 C-0.84875 9.42 -1.385 9.09 -1.9375 8.75 C-4.8516061 7.52300796 -7.18117708 7.60766714 -10.3125 7.75 C-10.6425 9.07 -10.9725 10.39 -11.3125 11.75 C-10.10013672 11.97042969 -10.10013672 11.97042969 -8.86328125 12.1953125 C0.96636371 14.25847079 0.96636371 14.25847079 3.9375 17.4375 C6.24174547 21.79910751 6.30842783 23.86019334 5.6875 28.75 C4.02873727 32.48221614 2.16262644 34.63883103 -1.3125 36.75 C-6.80933688 37.53830606 -13.19276972 38.05993917 -18 34.875 C-19.46472392 33.52903748 -20.90590282 32.15659718 -22.3125 30.75 C-22.3125 29.76 -22.3125 28.77 -22.3125 27.75 C-16.5625 24.75 -16.5625 24.75 -14.3125 24.75 C-13.6525 25.74 -12.9925 26.73 -12.3125 27.75 C-8.22003225 28.87264974 -8.22003225 28.87264974 -4.3125 27.75 C-3.66036708 25.72536745 -3.66036708 25.72536745 -3.3125 23.75 C-4.39917969 23.51216797 -4.39917969 23.51216797 -5.5078125 23.26953125 C-16.47682599 20.62234266 -16.47682599 20.62234266 -20.3125 15.75 C-21.32899215 10.89164774 -21.06424508 7.08643569 -18.625 2.75 C-13.07727448 -2.04803288 -6.72877768 -2.53916139 0 0 Z " fill="#083A63" transform="translate(372.3125,63.25)"/>
<path d="M0 0 C2.78096941 1.46215917 4.66254704 2.53933165 5.89453125 5.49609375 C5.91515625 6.07359375 5.93578125 6.65109375 5.95703125 7.24609375 C0.20703125 10.24609375 0.20703125 10.24609375 -2.04296875 10.24609375 C-2.04296875 9.58609375 -2.04296875 8.92609375 -2.04296875 8.24609375 C-4.68296875 8.24609375 -7.32296875 8.24609375 -10.04296875 8.24609375 C-9.91449233 10.22778474 -9.91449233 10.22778474 -9.04296875 12.24609375 C-6.88945957 13.20922301 -6.88945957 13.20922301 -4.29296875 13.68359375 C0.38208775 14.9276002 3.04007038 16.19998673 5.95703125 20.24609375 C7.51821872 25.03373531 6.91716997 28.64402894 4.95703125 33.24609375 C1.30267709 36.99661513 -1.92912873 37.55010934 -6.98046875 37.74609375 C-12.50517258 37.55393014 -15.69373201 36.64984424 -20.04296875 33.24609375 C-20.70296875 31.92609375 -21.36296875 30.60609375 -22.04296875 29.24609375 C-19.40296875 27.92609375 -16.76296875 26.60609375 -14.04296875 25.24609375 C-12.99109375 26.23609375 -12.99109375 26.23609375 -11.91796875 27.24609375 C-8.60836646 29.54842578 -6.98071052 29.61239531 -3.04296875 29.24609375 C-3.53796875 26.77109375 -3.53796875 26.77109375 -4.04296875 24.24609375 C-4.70683594 24.0759375 -5.37070312 23.90578125 -6.0546875 23.73046875 C-15.97396568 21.00809751 -15.97396568 21.00809751 -19.04296875 17.24609375 C-20.31941251 12.96719738 -20.57031377 9.5228238 -18.85546875 5.37109375 C-13.94982692 -0.3803484 -7.30743985 -2.69662694 0 0 Z " fill="#063A65" transform="translate(280.04296875,62.75390625)"/>
<path d="M0 0 C2.32161721 1.42462874 4.08004046 2.5536628 5.75 4.6875 C5.75 5.3475 5.75 6.0075 5.75 6.6875 C3 8.3125 3 8.3125 -0.25 9.6875 C-2.25 8.875 -2.25 8.875 -4.25 7.6875 C-7.41695956 7.52025263 -7.41695956 7.52025263 -10.25 7.6875 C-10.12208477 9.67196722 -10.12208477 9.67196722 -9.25 11.6875 C-7.09356074 12.61328609 -7.09356074 12.61328609 -4.5 13.0625 C-1.08221578 13.98304933 1.40785534 14.71700677 3.875 17.3125 C6.27802846 21.63795122 6.57159672 24.84722365 5.75 29.6875 C4.50530683 32.61252895 3.56882653 34.10262391 1 35.9375 C-5.10625996 37.97291999 -10.30213692 38.03173115 -16.25 35.6875 C-19.61888522 33.46546932 -20.96889054 32.53082837 -22.25 28.6875 C-19.61 27.3675 -16.97 26.0475 -14.25 24.6875 C-13.92 25.6775 -13.59 26.6675 -13.25 27.6875 C-9.95 28.0175 -6.65 28.3475 -3.25 28.6875 C-3.25 27.0375 -3.25 25.3875 -3.25 23.6875 C-3.98605469 23.51734375 -4.72210938 23.3471875 -5.48046875 23.171875 C-15.34580973 20.72182995 -15.34580973 20.72182995 -19.25 16.6875 C-20.85055535 13.48638929 -20.60481231 10.16867737 -20.25 6.6875 C-18.80057893 2.85079716 -17.6073314 1.88678097 -14 -0.125 C-8.75557186 -1.78573558 -5.1405874 -2.07600645 0 0 Z " fill="#0A3A60" transform="translate(443.25,161.3125)"/>
<path d="M0 0 C7.26 0 14.52 0 22 0 C22 2.64 22 5.28 22 8 C17.71 8 13.42 8 9 8 C9 9.98 9 11.96 9 14 C12.96 14 16.92 14 21 14 C21 16.64 21 19.28 21 22 C17.04 22 13.08 22 9 22 C9 24.31 9 26.62 9 29 C13.62 29 18.24 29 23 29 C23 31.64 23 34.28 23 37 C15.41 37 7.82 37 0 37 C0 24.79 0 12.58 0 0 Z " fill="#023967" transform="translate(347,161)"/>
<path d="M0 0 C7.26 0 14.52 0 22 0 C22 2.31 22 4.62 22 7 C17.71 7 13.42 7 9 7 C9 9.31 9 11.62 9 14 C12.96 14 16.92 14 21 14 C21 16.64 21 19.28 21 22 C17.04 22 13.08 22 9 22 C9 24.31 9 26.62 9 29 C13.62 29 18.24 29 23 29 C23 31.64 23 34.28 23 37 C15.41 37 7.82 37 0 37 C0 24.79 0 12.58 0 0 Z " fill="#0B3B61" transform="translate(470,112)"/>
<path d="M0 0 C7.26 0 14.52 0 22 0 C22 2.31 22 4.62 22 7 C17.71 7 13.42 7 9 7 C9 9.31 9 11.62 9 14 C12.96 14 16.92 14 21 14 C21 16.64 21 19.28 21 22 C17.04 22 13.08 22 9 22 C9 24.31 9 26.62 9 29 C13.62 29 18.24 29 23 29 C23 31.64 23 34.28 23 37 C15.41 37 7.82 37 0 37 C0 24.79 0 12.58 0 0 Z " fill="#073A64" transform="translate(291,63)"/>
<path d="M0 0 C7.26 0 14.52 0 22 0 C22 2.31 22 4.62 22 7 C18.04 7 14.08 7 10 7 C10 9.64 10 12.28 10 15 C13.63 15 17.26 15 21 15 C21 17.64 21 20.28 21 23 C17.37 23 13.74 23 10 23 C10 27.62 10 32.24 10 37 C6.7 37 3.4 37 0 37 C0 24.79 0 12.58 0 0 Z " fill="#043A65" transform="translate(293,112)"/>
<path d="M0 0 C3.3 0 6.6 0 10 0 C11.98 4.29 13.96 8.58 16 13 C17.98 8.71 19.96 4.42 22 0 C25.3 0 28.6 0 32 0 C30.71284671 4.43821708 28.86488698 8.23766462 26.67358398 12.27001953 C22.14191572 20.67459489 19.57101301 27.28773452 20 37 C17.03 37 14.06 37 11 37 C11.04382813 36.23300781 11.08765625 35.46601563 11.1328125 34.67578125 C11.10560735 22.96396348 6.28043004 14.10323853 0.90209961 3.93261719 C0 2 0 2 0 0 Z " fill="#063A64" transform="translate(251,161)"/>
<path d="M0 0 C1.65 0 3.3 0 5 0 C5.83806616 2.93622464 6.67062444 5.87382067 7.5 8.8125 C7.73847656 9.64587891 7.97695312 10.47925781 8.22265625 11.33789062 C8.44824219 12.14033203 8.67382812 12.94277344 8.90625 13.76953125 C9.11572266 14.50792236 9.32519531 15.24631348 9.54101562 16.00708008 C10 18 10 18 10 21 C10.66 21 11.32 21 12 21 C12.12246094 19.99839844 12.24492188 18.99679687 12.37109375 17.96484375 C12.92969679 14.05462246 13.94359758 10.35233077 15.0625 6.5625 C15.42472656 5.32628906 15.78695312 4.09007812 16.16015625 2.81640625 C16.43730469 1.88699219 16.71445313 0.95757812 17 0 C18.65 0 20.3 0 22 0 C23.98 6.6 25.96 13.2 28 20 C29.98 13.4 31.96 6.8 34 0 C35.65 0 37.3 0 39 0 C36.54201885 10.06726323 33.92124175 20.05534724 31 30 C29.35 30 27.7 30 26 30 C23.69557475 24.07433507 21.76463072 18.10737442 20 12 C17.98973944 15.58587018 16.97196209 19.30093646 15.875 23.25 C15.52179688 24.51328125 15.16859375 25.7765625 14.8046875 27.078125 C14.53914063 28.04234375 14.27359375 29.0065625 14 30 C12.02 30 10.04 30 8 30 C6.85543097 26.21127865 5.71625345 22.42098253 4.58203125 18.62915039 C4.00545178 16.70568707 3.42462069 14.78349989 2.84375 12.86132812 C2.4828125 11.65283203 2.121875 10.44433594 1.75 9.19921875 C1.41484375 8.08377686 1.0796875 6.96833496 0.734375 5.8190918 C0 3 0 3 0 0 Z " fill="#0A3A62" transform="translate(66,241)"/>
<path d="M0 0 C9.24 0 18.48 0 28 0 C28 2.31 28 4.62 28 7 C25.03 7 22.06 7 19 7 C19 16.9 19 26.8 19 37 C15.7 37 12.4 37 9 37 C9 27.1 9 17.2 9 7 C6.03 7 3.06 7 0 7 C0 4.69 0 2.38 0 0 Z " fill="#053B66" transform="translate(317,112)"/>
<path d="M0 0 C9.57 0 19.14 0 29 0 C29 2.31 29 4.62 29 7 C25.7 7 22.4 7 19 7 C19 16.9 19 26.8 19 37 C16.03 37 13.06 37 10 37 C10 27.1 10 17.2 10 7 C6.7 7 3.4 7 0 7 C0 4.69 0 2.38 0 0 Z " fill="#0B3B61" transform="translate(314,161)"/>
<path d="M0 0 C2.413125 -0.020625 4.82625 -0.04125 7.3125 -0.0625 C8.06829346 -0.071604 8.82408691 -0.08070801 9.6027832 -0.09008789 C12.6839493 -0.10287966 15.05605196 0.01868399 18 1 C18.66 0.67 19.32 0.34 20 0 C27.24905375 -0.46025738 27.24905375 -0.46025738 29.9375 1.1875 C32.4729833 5.51273621 32.1080404 10.43967719 32.0625 15.3125 C32.05347656 16.56675781 32.04445313 17.82101562 32.03515625 19.11328125 C32.02355469 20.06589844 32.01195312 21.01851563 32 22 C30.35 22 28.7 22 27 22 C26.67 16.06 26.34 10.12 26 4 C24.02 4 22.04 4 20 4 C18.81304447 7.56086658 18.64904582 10.97331024 18.4375 14.6875 C18.39431641 15.38939453 18.35113281 16.09128906 18.30664062 16.81445312 C18.2008264 18.54275206 18.09993419 20.2713511 18 22 C16.68 22 15.36 22 14 22 C13.93941406 21.02417969 13.87882812 20.04835938 13.81640625 19.04296875 C13.69072266 17.13451172 13.69072266 17.13451172 13.5625 15.1875 C13.48128906 13.92292969 13.40007812 12.65835937 13.31640625 11.35546875 C13.12815453 8.00818107 13.12815453 8.00818107 12 5 C10.33388095 4.957279 8.66617115 4.95936168 7 5 C4.94077598 7.05922402 5.58572421 11.21708124 5.4375 14.0625 C5.39431641 14.82111328 5.35113281 15.57972656 5.30664062 16.36132812 C5.20026367 18.24065438 5.09960066 20.12030244 5 22 C3.35 22 1.7 22 0 22 C0 14.74 0 7.48 0 0 Z " fill="#0B395E" transform="translate(291,249)"/>
<path d="M0 0 C-1.65 0.66 -3.3 1.32 -5 2 C-4.91513349 9.76359456 -4.82007692 17.52699427 -4.71247292 25.29030323 C-4.6628032 28.89621547 -4.61647413 32.50210249 -4.578125 36.1081543 C-4.54089723 39.59666059 -4.49444339 43.08493934 -4.44193649 46.57324791 C-4.41474013 48.53319644 -4.39678139 50.49326627 -4.37905884 52.45332336 C-4.22115558 62.15204877 -3.85323706 71.3965343 1 80 C1 80.66 1 81.32 1 82 C1.9075 81.505 2.815 81.01 3.75 80.5 C7 79 7 79 11 79 C11 77.68 11 76.36 11 75 C10.34 75 9.68 75 9 75 C9.495 73.515 9.495 73.515 10 72 C12.08299593 74.70789471 13.94116944 77.47883871 15.75 80.375 C18.23284992 84.13952057 20.85086233 86.9310228 24.38671875 89.7109375 C26.04944555 91.03950855 27.52094436 92.47179145 29 94 C19.65346747 94.62310217 9.91873973 92.52605881 2.4609375 86.5234375 C-10.40728426 73.10470358 -7.08548515 47.42227994 -7.125 30.25 C-7.12967285 28.95989014 -7.1343457 27.66978027 -7.13916016 26.34057617 C-7.12855161 19.94811346 -7.02064487 13.55848195 -6.7421875 7.171875 C-6.69690918 6.03331055 -6.65163086 4.89474609 -6.60498047 3.72167969 C-6 1 -6 1 -4.07861328 -0.44824219 C-2 -1 -2 -1 0 0 Z " fill="#036CB2" transform="translate(42,91)"/>
<path d="M0 0 C2.92875 -0.061875 5.8575 -0.12375 8.875 -0.1875 C9.79651855 -0.21481201 10.71803711 -0.24212402 11.66748047 -0.27026367 C12.39338379 -0.27775635 13.11928711 -0.28524902 13.8671875 -0.29296875 C14.98262939 -0.31653442 14.98262939 -0.31653442 16.12060547 -0.34057617 C17.05090576 -0.17199097 17.05090576 -0.17199097 18 0 C20 3 20 3 19.625 5.1875 C19.41875 5.785625 19.2125 6.38375 19 7 C20.32 6.67 21.64 6.34 23 6 C23 9.3 23 12.6 23 16 C21.68 16.33 20.36 16.66 19 17 C18.855625 16.113125 18.71125 15.22625 18.5625 14.3125 C18.08980022 11.52882354 17.56929815 8.76516243 17 6 C12.99745544 5.90818866 12.99745544 5.90818866 9 6 C7.41727399 7.58272601 7.65264253 9.38034003 7.4375 11.5625 C7.35371094 12.38878906 7.26992188 13.21507813 7.18359375 14.06640625 C7.12300781 14.70449219 7.06242187 15.34257813 7 16 C9.31 16 11.62 16 14 16 C12.25 17.5625 12.25 17.5625 10 19 C7.75 18.6875 7.75 18.6875 6 18 C6 18.66 6 19.32 6 20 C6.66 20.33 7.32 20.66 8 21 C7.67 21.33 7.34 21.66 7 22 C6.76518307 24.18292774 6.58636677 26.37203174 6.4375 28.5625 C6.31181641 30.35880859 6.31181641 30.35880859 6.18359375 32.19140625 C6.12300781 33.11824219 6.06242187 34.04507813 6 35 C4.02 35 2.04 35 0 35 C0 23.45 0 11.9 0 0 Z " fill="#023967" transform="translate(319,64)"/>
<path d="M0 0 C2.475 0.495 2.475 0.495 5 1 C5.20496094 1.78246094 5.40992188 2.56492188 5.62109375 3.37109375 C5.89050781 4.38300781 6.15992188 5.39492187 6.4375 6.4375 C6.83775391 7.95150391 6.83775391 7.95150391 7.24609375 9.49609375 C7.75978077 11.91752001 7.75978077 11.91752001 9 13 C10.32 8.71 11.64 4.42 13 0 C14.65 0 16.3 0 18 0 C18.50471197 1.76949612 19.00360685 3.54065223 19.5 5.3125 C19.7784375 6.29863281 20.056875 7.28476562 20.34375 8.30078125 C21 11 21 11 21 14 C21.66 14 22.32 14 23 14 C23.12375 12.989375 23.2475 11.97875 23.375 10.9375 C23.98085335 7.12062388 24.87193912 3.68499888 26 0 C27.65 0 29.3 0 31 0 C30.02615648 3.48067941 29.04503923 6.95926617 28.0625 10.4375 C27.78470703 11.43072266 27.50691406 12.42394531 27.22070312 13.44726562 C26.95322266 14.39150391 26.68574219 15.33574219 26.41015625 16.30859375 C26.16402588 17.18314209 25.91789551 18.05769043 25.66430664 18.95874023 C25 21 25 21 24 22 C22.33382885 22.04063832 20.66611905 22.042721 19 22 C18.79503906 21.21753906 18.59007812 20.43507813 18.37890625 19.62890625 C18.10949219 18.61699219 17.84007812 17.60507812 17.5625 16.5625 C17.29566406 15.55316406 17.02882813 14.54382813 16.75390625 13.50390625 C16.24021923 11.08247999 16.24021923 11.08247999 15 10 C13.68 13.96 12.36 17.92 11 22 C9.35 22 7.7 22 6 22 C4.99009308 19.08666921 3.99384048 16.16884681 3 13.25 C2.71382813 12.425 2.42765625 11.6 2.1328125 10.75 C1.86210937 9.95078125 1.59140625 9.1515625 1.3125 8.328125 C1.06113281 7.5949707 0.80976563 6.86181641 0.55078125 6.10644531 C0 4 0 4 0 0 Z " fill="#083962" transform="translate(406,249)"/>
<path d="M0 0 C3.63 0 7.26 0 11 0 C11 50.16 11 100.32 11 152 C7.37 152 3.74 152 0 152 C0 101.84 0 51.68 0 0 Z M1 1 C1 50.5 1 100 1 151 C3.97 151 6.94 151 10 151 C10.04668501 131.88540339 10.08197166 112.77081833 10.10362434 93.65617657 C10.11394451 84.78126306 10.12801895 75.90638494 10.15087891 67.03149414 C10.17079016 59.29769916 10.18371105 51.5639298 10.18817699 43.83010989 C10.19078822 39.73370461 10.19694104 35.63737265 10.21146011 31.54099083 C10.22500829 27.68741158 10.22922827 23.83393604 10.22621536 19.98033524 C10.22676677 18.56415176 10.23076069 17.14796491 10.23841095 15.73180199 C10.24832836 13.80171069 10.24478501 11.87156407 10.24050903 9.94145203 C10.24327441 8.31955727 10.24327441 8.31955727 10.24609566 6.66489697 C10.19215949 3.77274801 10.19215949 3.77274801 8 1 C5.69 1 3.38 1 1 1 Z " fill="#13395B" transform="translate(192,56)"/>
<path d="M0 0 C6.6 0 13.2 0 20 0 C20 1.98 20 3.96 20 6 C15.71 6 11.42 6 7 6 C7 8.64 7 11.28 7 14 C10.96 14 14.92 14 19 14 C19 15.98 19 17.96 19 20 C18.25234375 19.95359375 17.5046875 19.9071875 16.734375 19.859375 C10.71848419 19.40059351 10.71848419 19.40059351 5.5625 21.9375 C4.7890625 22.9584375 4.7890625 22.9584375 4 24 C2.68 24.33 1.36 24.66 0 25 C0 16.75 0 8.5 0 0 Z " fill="#013A68" transform="translate(471,113)"/>
<path d="M0 0 C1.65 0 3.3 0 5 0 C5.33 5.61 5.66 11.22 6 17 C7.051875 15.845 8.10375 14.69 9.1875 13.5 C12.59215729 10.06074253 12.59215729 10.06074253 15.9375 9.5625 C16.9584375 9.7790625 16.9584375 9.7790625 18 10 C16.34908222 14.29238623 13.26245434 16.8793915 10 20 C11.40514147 23.21479335 13.08739836 25.28043342 15.625 27.6875 C16.76609094 28.77502953 17.89574979 29.875082 19 31 C19 31.33 19 31.66 19 32 C15.875 32.4375 15.875 32.4375 12 32 C9.61317961 29.93418366 7.79950957 27.58391118 6 25 C5.67 27.31 5.34 29.62 5 32 C3.35 32 1.7 32 0 32 C0 21.44 0 10.88 0 0 Z " fill="#063A63" transform="translate(146,239)"/>
<path d="M0 0 C3.20801077 2.02955783 4.55160311 3.46586221 5.62109375 7.125 C6.45418977 12.20946229 6.07925264 15.6890463 3 20 C0.06791771 22.44340191 -1.68822321 22.96659534 -5.5 23.375 C-9.31177679 22.96659534 -11.06791771 22.44340191 -14 20 C-16.89437482 15.8513961 -17.42230166 12.74934963 -16.5859375 7.8984375 C-15.68944087 4.99378842 -14.12510134 3.12510134 -12 1 C-8.26731351 -0.86634324 -4.06513036 -0.54329572 0 0 Z M-10.9375 5.5625 C-12.41282332 8.94706527 -12.45674603 11.34603178 -12 15 C-10.60314994 17.6469872 -10.60314994 17.6469872 -8 19 C-4.37350049 19.08916154 -4.37350049 19.08916154 -1 18 C1.47342266 14.28986601 1.38503486 12.38939738 1 8 C0.11670357 5.46041766 0.11670357 5.46041766 -2 4 C-6.82738082 3.30698414 -6.82738082 3.30698414 -10.9375 5.5625 Z " fill="#0C3960" transform="translate(121,249)"/>
<path d="M0 0 C3.20801077 2.02955783 4.55160311 3.46586221 5.62109375 7.125 C6.45418977 12.20946229 6.07925264 15.6890463 3 20 C0.06791771 22.44340191 -1.68822321 22.96659534 -5.5 23.375 C-9.34151162 22.96340947 -11.08028473 22.51419926 -14 20 C-16.60339999 15.80096776 -17.34460843 13.19514109 -16.5 8.3125 C-15.65912431 5.37944552 -14.91461002 3.89059409 -13 1.4375 C-8.6224068 -0.66009674 -4.76125308 -0.87563275 0 0 Z M-10.9375 5.5625 C-12.41282332 8.94706527 -12.45674603 11.34603178 -12 15 C-10.60314994 17.6469872 -10.60314994 17.6469872 -8 19 C-4.37350049 19.08916154 -4.37350049 19.08916154 -1 18 C1.47342266 14.28986601 1.38503486 12.38939738 1 8 C0.11670357 5.46041766 0.11670357 5.46041766 -2 4 C-6.82738082 3.30698414 -6.82738082 3.30698414 -10.9375 5.5625 Z " fill="#0B3A5F" transform="translate(213,249)"/>
<path d="M0 0 C3.55680172 2.10504591 4.69468936 3.08406808 6 7 C6.34231315 12.30585376 6.53140599 15.73795828 3 20 C-0.93461624 23.16955197 -4.02077887 23.53348798 -9 23 C-12.83657365 21.29485616 -14.42714738 19.83859186 -16 16 C-16.75015822 11.20247649 -16.43135757 7.8052008 -14.125 3.5 C-10.24001473 -1.0705709 -5.68840275 -0.66185818 0 0 Z M-10.4375 6.0625 C-12.48562148 9.91296839 -12.22685696 11.85935777 -11 16 C-9.44202118 18.14782671 -9.44202118 18.14782671 -7 19 C-3.90351124 19.16448881 -3.90351124 19.16448881 -1 18 C1.52366824 15.15069714 2.02743228 13.68580708 1.875 9.875 C0.7984594 6.26629489 0.7984594 6.26629489 -2 4 C-5.92708669 3.33155971 -7.36475466 3.46248471 -10.4375 6.0625 Z " fill="#09385D" transform="translate(281,249)"/>
<path d="M0 0 C3.32523946 2.18924136 4.70488233 5.15153669 6 8.875 C6 13.07382824 5.07879187 16.35002823 3 20 C0.09060706 22.58612706 -1.62551784 22.95987691 -5.5 23.375 C-9.28541073 22.96942028 -11.05344689 22.37361222 -14 20 C-17.16955197 16.06538376 -17.53348798 12.97922113 -17 8 C-13.54080337 0.38976742 -7.96059775 -1.58439081 0 0 Z M-10.9375 5.5625 C-12.41282332 8.94706527 -12.45674603 11.34603178 -12 15 C-10.02929117 17.84657942 -8.87646044 18.8027964 -5.5 19.5625 C-2.8038088 19.17407589 -2.8038088 19.17407589 -0.6875 16.875 C1.28569575 13.51325909 1.57104749 11.83417603 1 8 C0.09764165 5.51894806 0.09764165 5.51894806 -2 4 C-6.82738082 3.30698414 -6.82738082 3.30698414 -10.9375 5.5625 Z " fill="#0A3960" transform="translate(399,249)"/>
<path d="M0 0 C3.55700915 2.70332695 4.69040777 4.09691834 5.3984375 8.44921875 C5.58851701 13.34011069 5.34257597 17.17991317 2 21 C-1.42176689 23.56632517 -4.84640421 23.36435051 -9 23 C-13.14613048 21.20962547 -15.20962547 19.14613048 -17 15 C-17.53632889 9.99426368 -17.10708223 6.99482001 -14 3 C-9.69304793 -0.83982061 -5.55458288 -1.06784388 0 0 Z M-10.9375 5.5625 C-12.41282332 8.94706527 -12.45674603 11.34603178 -12 15 C-10.02929117 17.84657942 -8.87646044 18.8027964 -5.5 19.5625 C-2.8038088 19.17407589 -2.8038088 19.17407589 -0.6875 16.875 C1.28569575 13.51325909 1.57104749 11.83417603 1 8 C0.09764165 5.51894806 0.09764165 5.51894806 -2 4 C-6.82738082 3.30698414 -6.82738082 3.30698414 -10.9375 5.5625 Z " fill="#0C375D" transform="translate(343,249)"/>
<path d="M0 0 C6.93 0 13.86 0 21 0 C21 1.32 21 2.64 21 4 C18.36 4 15.72 4 13 4 C13 12.58 13 21.16 13 30 C11.35 30 9.7 30 8 30 C8 21.42 8 12.84 8 4 C5.36 4 2.72 4 0 4 C0 2.68 0 1.36 0 0 Z " fill="#053863" transform="translate(246,241)"/>
<path d="M0 0 C5.28 0 10.56 0 16 0 C16 1.32 16 2.64 16 4 C12.04 4 8.08 4 4 4 C4 6.97 4 9.94 4 13 C7.63 13 11.26 13 15 13 C15 14.32 15 15.64 15 17 C11.37 17 7.74 17 4 17 C4 21.29 4 25.58 4 30 C2.68 30 1.36 30 0 30 C0 20.1 0 10.2 0 0 Z " fill="#093A62" transform="translate(178,241)"/>
<path d="M0 0 C1.32 0 2.64 0 4 0 C4 0.66 4 1.32 4 2 C5.32 2 6.64 2 8 2 C8.33 2.66 8.66 3.32 9 4 C9.99 4.66 10.98 5.32 12 6 C9 8 9 8 6.9375 7.6875 C5 7 5 7 3 6 C0.6599583 6.28241883 -1.67504723 6.61250787 -4 7 C-3.22520264 9.99152582 -3.22520264 9.99152582 -2 13 C-1.01 13.33 -0.02 13.66 1 14 C2.38576923 15.62332967 3.72641268 17.28724465 5 19 C4.67 19.66 4.34 20.32 4 21 C0.97580475 20.41196203 -2.01758453 19.77321882 -5 19 C-5 18.34 -5 17.68 -5 17 C-5.639375 16.87625 -6.27875 16.7525 -6.9375 16.625 C-7.9584375 16.315625 -7.9584375 16.315625 -9 16 C-10.49297212 13.01405576 -10.11755228 10.29146376 -10 7 C-8.72070154 4.44140308 -7.55728932 4.13851266 -5 2.9375 C-2.30092276 1.75531476 -2.30092276 1.75531476 0 0 Z " fill="#013A68" transform="translate(435,161)"/>
<path d="M0 0 C7.26 0 14.52 0 22 0 C22 2.64 22 5.28 22 8 C17.71 8 13.42 8 9 8 C9 9.98 9 11.96 9 14 C12.96 14 16.92 14 21 14 C21 16.64 21 19.28 21 22 C17.04 22 13.08 22 9 22 C9 21.67 9 21.34 9 21 C12.63 21 16.26 21 20 21 C20 19.02 20 17.04 20 15 C19.30132812 15.08378906 18.60265625 15.16757813 17.8828125 15.25390625 C16.97273438 15.35574219 16.06265625 15.45757812 15.125 15.5625 C14.22007812 15.66691406 13.31515625 15.77132812 12.3828125 15.87890625 C10 16 10 16 8 15 C8 12.03 8 9.06 8 6 C11.96 6 15.92 6 20 6 C20 4.35 20 2.7 20 1 C14.06 1.33 8.12 1.66 2 2 C1.67 13.22 1.34 24.44 1 36 C7.93 36 14.86 36 22 36 C21.505 33.525 21.505 33.525 21 31 C17.04 30.67 13.08 30.34 9 30 C9 29.67 9 29.34 9 29 C13.62 29 18.24 29 23 29 C23 31.64 23 34.28 23 37 C15.41 37 7.82 37 0 37 C0 24.79 0 12.58 0 0 Z " fill="#143B5A" transform="translate(347,161)"/>
<path d="M0 0 C0 8.25 0 16.5 0 25 C-2.31 25 -4.62 25 -7 25 C-7 17.08 -7 9.16 -7 1 C-5 0 -5 0 0 0 Z " fill="#013A67" transform="translate(332,172)"/>
<path d="M0 0 C0 0.99 0 1.98 0 3 C-0.97311127 3.62029839 -0.97311127 3.62029839 -1.96588135 4.25312805 C-4.32276914 5.89995102 -4.32276914 5.89995102 -4.51898193 9.09416199 C-4.52786438 10.36657242 -4.53674683 11.63898285 -4.54589844 12.94995117 C-4.55623611 13.65264633 -4.56657379 14.35534149 -4.57722473 15.07933044 C-4.60671048 17.40077552 -4.60815302 19.72135094 -4.609375 22.04296875 C-4.62435287 23.65295582 -4.6410792 25.2629275 -4.65948486 26.87287903 C-4.70321528 31.10941259 -4.72316988 35.3457389 -4.73822021 39.5824585 C-4.75777096 43.90600876 -4.79974315 48.22933451 -4.83984375 52.55273438 C-4.9152074 61.0350976 -4.96546134 69.5173728 -5 78 C-5.66 78 -6.32 78 -7 78 C-7 53.58 -7 29.16 -7 4 C-4.69 2.68 -2.38 1.36 0 0 Z " fill="#1A6A9E" transform="translate(20,73)"/>
<path d="M0 0 C0 24.42 0 48.84 0 74 C-0.66 73.67 -1.32 73.34 -2 73 C-2 50.23 -2 27.46 -2 4 C-4.31 4.33 -6.62 4.66 -9 5 C-6.45523312 2.20075644 -3.92372883 0 0 0 Z " fill="#18679A" transform="translate(51,85)"/>
<path d="M0 0 C-1.65 0.66 -3.3 1.32 -5 2 C-4.91513349 9.76359456 -4.82007692 17.52699427 -4.71247292 25.29030323 C-4.6628032 28.89621547 -4.61647413 32.50210249 -4.578125 36.1081543 C-4.54089723 39.59666059 -4.49444339 43.08493934 -4.44193649 46.57324791 C-4.41474013 48.53319644 -4.39678139 50.49326627 -4.37905884 52.45332336 C-4.22115558 62.15204877 -3.85323706 71.3965343 1 80 C1 80.66 1 81.32 1 82 C1.99 82.33 2.98 82.66 4 83 C3.505 83.495 3.505 83.495 3 84 C4.65 85.65 6.3 87.3 8 89 C3.4628618 87.15153629 0.20113566 84.31199524 -2.07519531 79.93041992 C-4.82909873 73.37481584 -5.82912938 67.38312634 -6.25 60.3125 C-6.32516846 59.20616211 -6.40033691 58.09982422 -6.4777832 56.95996094 C-7.32523097 43.00176989 -7.38112232 28.97573656 -7 15 C-6.9685791 13.69224609 -6.9371582 12.38449219 -6.90478516 11.03710938 C-6.84983887 9.77189453 -6.79489258 8.50667969 -6.73828125 7.203125 C-6.69356689 6.06004883 -6.64885254 4.91697266 -6.6027832 3.73925781 C-6 1 -6 1 -4.07885742 -0.45019531 C-2 -1 -2 -1 0 0 Z " fill="#196B9E" transform="translate(42,91)"/>
<path d="M0 0 C4.29 0 8.58 0 13 0 C12.67 1.32 12.34 2.64 12 4 C11.195625 4.12375 10.39125 4.2475 9.5625 4.375 C8.2940625 4.684375 8.2940625 4.684375 7 5 C5.47893366 8.04213267 5.62570662 11.28047572 5.4375 14.625 C5.39431641 15.33140625 5.35113281 16.0378125 5.30664062 16.765625 C5.20055249 18.51018537 5.09977111 20.25506697 5 22 C3.35 22 1.7 22 0 22 C0 14.74 0 7.48 0 0 Z " fill="#093C62" transform="translate(368,249)"/>
<path d="M0 0 C1.15957207 3.47871621 0.77456651 4.34219645 -0.4375 7.6875 C-0.72496094 8.49574219 -1.01242187 9.30398437 -1.30859375 10.13671875 C-1.65083984 11.05904297 -1.65083984 11.05904297 -2 12 C1.465 11.505 1.465 11.505 5 11 C5.33 10.01 5.66 9.02 6 8 C7.4783226 10.95664519 7.06032783 13.74229737 7 17 C6.34 17 5.68 17 5 17 C5 16.01 5 15.02 5 14 C2.36 13.67 -0.28 13.34 -3 13 C-2.45144652 8.428721 -1.58255197 4.32564205 0 0 Z M12 5 C14.05264866 7.05264866 14.56528526 8.13767959 15.5078125 10.80859375 C15.77207031 11.55560547 16.03632813 12.30261719 16.30859375 13.07226562 C16.57800781 13.85279297 16.84742188 14.63332031 17.125 15.4375 C17.54072266 16.60249023 17.54072266 16.60249023 17.96484375 17.79101562 C20 23.61076047 20 23.61076047 20 27 C16.7 27 13.4 27 10 27 C9.34 25.02 8.68 23.04 8 21 C5.03 20.505 5.03 20.505 2 20 C1.67 18.68 1.34 17.36 1 16 C2.32 16.33 3.64 16.66 5 17 C5 17.66 5 18.32 5 19 C6.65 19 8.3 19 10 19 C10.66 20.65 11.32 22.3 12 24 C13.32 24 14.64 24 16 24 C16.33 22.68 16.66 21.36 17 20 C15.68 19.34 14.36 18.68 13 18 C13 17.34 13 16.68 13 16 C12.01 15.67 11.02 15.34 10 15 C10.99 14.67 11.98 14.34 13 14 C12.67 11.03 12.34 8.06 12 5 Z " fill="#0E3C60" transform="translate(413,122)"/>
<path d="M0 0 C2.475 0.495 2.475 0.495 5 1 C5.33 0.67 5.66 0.34 6 0 C8.33297433 -0.04092937 10.66705225 -0.04241723 13 0 C12.875 1.875 12.875 1.875 12 4 C10.01276732 4.70381157 8.01222047 5.3711811 6 6 C4.89485234 9.31544299 4.67892369 12.20410111 4.4375 15.6875 C4.35371094 16.86699219 4.26992187 18.04648437 4.18359375 19.26171875 C4.12300781 20.16535156 4.06242188 21.06898438 4 22 C2.68 22 1.36 22 0 22 C0 14.74 0 7.48 0 0 Z " fill="#0D3B60" transform="translate(223,249)"/>
<path d="M0 0 C2.475 0.495 2.475 0.495 5 1 C5.33 0.67 5.66 0.34 6 0 C8.33297433 -0.04092937 10.66705225 -0.04241723 13 0 C12.875 1.875 12.875 1.875 12 4 C10.01276732 4.70381157 8.01222047 5.3711811 6 6 C4.89485234 9.31544299 4.67892369 12.20410111 4.4375 15.6875 C4.35371094 16.86699219 4.26992187 18.04648437 4.18359375 19.26171875 C4.12300781 20.16535156 4.06242188 21.06898438 4 22 C2.68 22 1.36 22 0 22 C0 14.74 0 7.48 0 0 Z " fill="#153E5F" transform="translate(131,249)"/>
<path d="M0 0 C2.475 0.495 2.475 0.495 5 1 C5.33 0.67 5.66 0.34 6 0 C8.33297433 -0.04092937 10.66705225 -0.04241723 13 0 C12.875 1.875 12.875 1.875 12 4 C9 5.125 9 5.125 6 6 C4.5192152 8.9615696 4.64685963 11.83506295 4.4375 15.125 C4.35371094 16.40632813 4.26992188 17.68765625 4.18359375 19.0078125 C4.09271484 20.48894531 4.09271484 20.48894531 4 22 C2.68 22 1.36 22 0 22 C0 14.74 0 7.48 0 0 Z " fill="#0B3C64" transform="translate(353,249)"/>
<path d="M0 0 C0 18.15 0 36.3 0 55 C-2 53 -2 53 -2.23377991 51.04006958 C-2.22259377 49.83905106 -2.22259377 49.83905106 -2.21118164 48.61376953 C-2.20780289 47.70587677 -2.20442413 46.79798401 -2.20094299 45.86257935 C-2.18748337 44.87925629 -2.17402374 43.89593323 -2.16015625 42.8828125 C-2.15495468 41.87411102 -2.14975311 40.86540955 -2.14439392 39.82614136 C-2.12653516 36.59228331 -2.09537001 33.35873767 -2.0625 30.125 C-2.0348794 26.89843325 -2.0101535 23.67191229 -1.99131775 20.44528198 C-1.9790694 18.43525132 -1.96147433 16.42524467 -1.93800354 14.41531372 C-1.92820717 13.0440181 -1.92820717 13.0440181 -1.91821289 11.64501953 C-1.90995987 10.84274933 -1.90170685 10.04047913 -1.89320374 9.21389771 C-2.06885754 5.57257609 -2.38190367 3.61809633 -5 1 C-3 0 -3 0 0 0 Z " fill="#17689C" transform="translate(73,99)"/>
<path d="M0 0 C1.53125566 2.29688349 3.02961611 4.60192071 4.5 6.9375 C5.13421875 7.94103516 5.13421875 7.94103516 5.78125 8.96484375 C6.9611942 10.93519929 8.00113783 12.93291023 9 15 C3.05995975 15.49500335 -1.06107413 14.40971869 -6 11 C-7.91978614 9.09876252 -9.40229695 7.19684169 -11 5 C-10.34 4.67 -9.68 4.34 -9 4 C-9 4.66 -9 5.32 -9 6 C-4.46859347 6.93380961 -4.46859347 6.93380961 0 6 C0 4.02 0 2.04 0 0 Z " fill="#0E69A6" transform="translate(75,164)"/>
<path d="M0 0 C2.97 0 5.94 0 9 0 C9.01458252 0.74161377 9.02916504 1.48322754 9.04418945 2.24731445 C9.11859457 5.60290631 9.21528006 8.95749494 9.3125 12.3125 C9.33505859 13.47974609 9.35761719 14.64699219 9.38085938 15.84960938 C9.41630859 16.96787109 9.45175781 18.08613281 9.48828125 19.23828125 C9.51446533 20.26993408 9.54064941 21.30158691 9.56762695 22.36450195 C9.80472765 25.00785297 9.80472765 25.00785297 11.30151367 26.84838867 C14.05201308 28.71328815 16.7857114 28.18194086 20 28 C21.04882391 24.43928688 21.30386953 20.94472103 21.5625 17.25 C21.64628906 16.07953125 21.73007813 14.9090625 21.81640625 13.703125 C21.90728516 12.36507812 21.90728516 12.36507812 22 11 C24.67151851 13.67151851 24.29873672 15.09182532 24.3125 18.8125 C24.32925781 19.85019531 24.34601563 20.88789062 24.36328125 21.95703125 C23.9483473 25.43266082 23.22524967 27.301083 21 30 C18.84375 30.5234375 18.84375 30.5234375 16.5 30.375 C15.7265625 30.34148437 14.953125 30.30796875 14.15625 30.2734375 C12 30 12 30 9 29 C7.9407082 25.82212459 7.88541061 23.57411057 7.90234375 20.23828125 C7.90556641 19.12001953 7.90878906 18.00175781 7.91210938 16.84960938 C7.92048828 15.68236328 7.92886719 14.51511719 7.9375 13.3125 C7.94201172 12.13365234 7.94652344 10.95480469 7.95117188 9.74023438 C7.96296727 6.82677211 7.9794273 3.91341137 8 1 C5.69 1 3.38 1 1 1 C1 9.58 1 18.16 1 27 C0.67 27 0.34 27 0 27 C0 18.09 0 9.18 0 0 Z " fill="#133958" transform="translate(223,63)"/>
<path d="M0 0 C0.33 1.32 0.66 2.64 1 4 C5.455 3.505 5.455 3.505 10 3 C10 3.99 10 4.98 10 6 C5.71 5.67 1.42 5.34 -3 5 C-3 4.34 -3 3.68 -3 3 C-3.99 3.495 -3.99 3.495 -5 4 C-5.40729228 6.32156597 -5.74438677 8.6568787 -6 11 C-7.98 11.66 -9.96 12.32 -12 13 C-12 10.69 -12 8.38 -12 6 C-11.34 6 -10.68 6 -10 6 C-10 5.01 -10 4.02 -10 3 C-9.34 3 -8.68 3 -8 3 C-8 2.34 -8 1.68 -8 1 C-5.29120665 -0.35439668 -2.99066732 -0.06501451 0 0 Z " fill="#013A69" transform="translate(237,162)"/>
<path d="M0 0 C0.33 0 0.66 0 1 0 C1.03738281 1.19238281 1.07476562 2.38476562 1.11328125 3.61328125 C1.17894032 5.179719 1.24538768 6.74612384 1.3125 8.3125 C1.33505859 9.09818359 1.35761719 9.88386719 1.38085938 10.69335938 C1.41630859 11.45068359 1.45175781 12.20800781 1.48828125 12.98828125 C1.51446533 13.68477783 1.54064941 14.38127441 1.56762695 15.09887695 C2.1205008 17.52983612 3.13540983 18.39145164 5 20 C5.66 20.66 6.32 21.32 7 22 C6.67 22.99 6.34 23.98 6 25 C7.32 25 8.64 25 10 25 C10 24.34 10 23.68 10 23 C10.99 23.33 11.98 23.66 13 24 C12 27 12 27 11 29 C15.455 29.99 15.455 29.99 20 31 C20 31.66 20 32.32 20 33 C13.54915672 32.73121486 9.60974941 30.50344492 5 26 C0.80184359 20.5061163 -1.14209346 15.97413062 -1.125 9 C-1.12757812 7.948125 -1.13015625 6.89625 -1.1328125 5.8125 C-1 3 -1 3 0 0 Z " fill="#1469A1" transform="translate(120,26)"/>
<path d="M0 0 C2.52128356 2.52128356 2.29353069 3.51239013 2.4140625 7.0078125 C2.45273438 7.99394531 2.49140625 8.98007813 2.53125 9.99609375 C2.5621875 11.02863281 2.593125 12.06117188 2.625 13.125 C2.66367188 14.16527344 2.70234375 15.20554687 2.7421875 16.27734375 C2.83664766 18.85138311 2.92221214 21.42541155 3 24 C4.54950268 22.45049732 4.21655193 20.90009406 4.31640625 18.74609375 C4.35830078 17.89208984 4.40019531 17.03808594 4.44335938 16.15820312 C4.48267578 15.26037109 4.52199219 14.36253906 4.5625 13.4375 C4.60568359 12.53580078 4.64886719 11.63410156 4.69335938 10.70507812 C4.79978142 8.47021515 4.90179988 6.23523692 5 4 C5.33 4 5.66 4 6 4 C6 12.25 6 20.5 6 29 C4.35 29 2.7 29 1 29 C1 20.42 1 11.84 1 3 C-1.64 3 -4.28 3 -7 3 C-6.67 2.34 -6.34 1.68 -6 1 C-4.7934375 1.0309375 -4.7934375 1.0309375 -3.5625 1.0625 C-1.06645115 1.29633621 -1.06645115 1.29633621 0 0 Z " fill="#0D3658" transform="translate(253,242)"/>
<path d="M0 0 C0 0.66 0 1.32 0 2 C1.32 2.33 2.64 2.66 4 3 C4 3.99 4 4.98 4 6 C4.99 6.33 5.98 6.66 7 7 C6.34 8.32 5.68 9.64 5 11 C4.34 11 3.68 11 3 11 C3 10.34 3 9.68 3 9 C1.2984375 9.2784375 1.2984375 9.2784375 -0.4375 9.5625 C-2.2009375 9.7790625 -2.2009375 9.7790625 -4 10 C-5 9 -5 9 -5.09765625 7.15234375 C-5.06510417 5.1015625 -5.03255208 3.05078125 -5 1 C-2 0 -2 0 0 0 Z " fill="#023967" transform="translate(380,161)"/>
<path d="M0 0 C3.3 0 6.6 0 10 0 C10.67286212 2.41509441 11.33846012 4.83180356 12 7.25 C12.19078125 7.93191406 12.3815625 8.61382812 12.578125 9.31640625 C13.49957044 12.70600912 14 15.45778976 14 19 C13.34 19 12.68 19 12 19 C11.67 18.01 11.34 17.02 11 16 C8.87491756 19.18762365 8.4979837 21.26512223 8 25 C5.87491756 21.81237635 5.4979837 19.73487777 5 16 C5.99 16 6.98 16 8 16 C9.66251802 10.42567486 10.18609365 6.6932495 9 1 C5.56206661 1.18129815 5.56206661 1.18129815 2 2 C0.48705712 3.93597032 0.48705712 3.93597032 0 6 C-0.66 5.67 -1.32 5.34 -2 5 C-1.34 3.35 -0.68 1.7 0 0 Z " fill="#0F3D61" transform="translate(369,112)"/>
<path d="M0 0 C1.51953125 1.26953125 1.51953125 1.26953125 3 3 C2.6875 6.6875 2.6875 6.6875 2 10 C5.0745356 9.2236068 5.0745356 9.2236068 7 7 C6.125 12.875 6.125 12.875 5 14 C3.48071962 14.07179964 1.95832518 14.08392007 0.4375 14.0625 C-0.38878906 14.05347656 -1.21507812 14.04445312 -2.06640625 14.03515625 C-2.70449219 14.02355469 -3.34257812 14.01195312 -4 14 C-3.36843005 8.94744036 -1.86540627 4.70406799 0 0 Z M3 2 C5 3 5 3 5 3 Z " fill="#063962" transform="translate(401,135)"/>
<path d="M0 0 C0.66 0 1.32 0 2 0 C2 1.32 2 2.64 2 4 C4.31 4.33 6.62 4.66 9 5 C9.12375 5.928125 9.12375 5.928125 9.25 6.875 C9.79893332 9.12822188 9.79893332 9.12822188 11.76953125 10.12109375 C16.79626381 12.10185527 22.86027354 11.32638102 28 10 C23.71092251 13.95432022 19.71273268 13.42877139 14.13671875 13.28515625 C8.96491281 12.81499207 6.25858753 11.29260341 2.6875 7.625 C0.98514648 4.97689453 0.35449798 3.10185729 0 0 Z " fill="#0B395E" transform="translate(253,136)"/>
<path d="M0 0 C1.27310312 0.93441535 2.543388 1.87267111 3.8125 2.8125 C4.52019531 3.33457031 5.22789063 3.85664063 5.95703125 4.39453125 C7.78531393 5.83128877 9.39896688 7.31815763 11 9 C3.23248766 9.51783416 -2.75880117 7.74454913 -10 5 C-10 4.67 -10 4.34 -10 4 C-6.535 3.505 -6.535 3.505 -3 3 C-3 3.66 -3 4.32 -3 5 C-2.01 5 -1.02 5 0 5 C0 3.35 0 1.7 0 0 Z " fill="#15699D" transform="translate(60,176)"/>
<path d="M0 0 C0.33 0 0.66 0 1 0 C1.33 10.89 1.66 21.78 2 33 C3.98 33.33 5.96 33.66 8 34 C8.66 32.68 9.32 31.36 10 30 C10 32.31 10 34.62 10 37 C6.7 37 3.4 37 0 37 C0 24.79 0 12.58 0 0 Z " fill="#133751" transform="translate(293,112)"/>
<path d="M0 0 C1.65 0 3.3 0 5 0 C5 5.61 5 11.22 5 17 C4.67 17 4.34 17 4 17 C4 13.04 4 9.08 4 5 C3.01 5 2.02 5 1 5 C1 13.91 1 22.82 1 32 C0.67 32 0.34 32 0 32 C0 21.44 0 10.88 0 0 Z " fill="#11395A" transform="translate(146,239)"/>
<path d="M0 0 C2.18697502 2.79624958 3.99152813 5.63307872 5.6875 8.75 C6.12449219 9.54921875 6.56148437 10.3484375 7.01171875 11.171875 C7.33785156 11.77515625 7.66398437 12.3784375 8 13 C6.6078125 12.9690625 6.6078125 12.9690625 5.1875 12.9375 C1.97713989 12.84230396 1.97713989 12.84230396 -1 14 C-1.33 13.01 -1.66 12.02 -2 11 C-4.00016466 9.79117904 -4.00016466 9.79117904 -6 9 C-1.25 7 -1.25 7 1 7 C1 5.68 1 4.36 1 3 C0.34 3 -0.32 3 -1 3 C-0.67 2.01 -0.34 1.02 0 0 Z " fill="#096AA6" transform="translate(52,163)"/>
<path d="M0 0 C1.32 0 2.64 0 4 0 C3.67 5.94 3.34 11.88 3 18 C2.01 18 1.02 18 0 18 C0 12.06 0 6.12 0 0 Z " fill="#093862" transform="translate(132,253)"/>
<path d="M0 0 C1.84121215 1.09097798 3.67281256 2.19819251 5.5 3.3125 C6.5209375 3.92738281 7.541875 4.54226562 8.59375 5.17578125 C9.3878125 5.77777344 10.181875 6.37976563 11 7 C11 7.99 11 8.98 11 10 C5.55432314 8.97137215 0.88182883 7.75385216 -4 5 C-3.34 4.54625 -2.68 4.0925 -2 3.625 C-1.34 3.08875 -0.68 2.5525 0 2 C0 1.34 0 0.68 0 0 Z " fill="#186A9C" transform="translate(37,178)"/>
<path d="M0 0 C3.01167544 3.01167544 2.83863075 6.45452723 3.4375 10.56640625 C3.623125 11.36949219 3.80875 12.17257813 4 13 C4.66 13.33 5.32 13.66 6 14 C6.72159424 15.64363134 7.39351421 17.31050386 8 19 C10.64 19.33 13.28 19.66 16 20 C16 20.66 16 21.32 16 22 C12.37 22 8.74 22 5 22 C4.16215646 18.89698662 3.32955579 15.7927291 2.5 12.6875 C2.26152344 11.80642578 2.02304687 10.92535156 1.77734375 10.01757812 C1.55175781 9.17001953 1.32617188 8.32246094 1.09375 7.44921875 C0.88427734 6.66893311 0.67480469 5.88864746 0.45898438 5.0847168 C0 3 0 3 0 0 Z " fill="#123957" transform="translate(351,127)"/>
<path d="M0 0 C0.66 0.33 1.32 0.66 2 1 C2 1.99 2 2.98 2 4 C2.99 5.485 2.99 5.485 4 7 C2.35 7.33 0.7 7.66 -1 8 C-1.33 7.34 -1.66 6.68 -2 6 C-4.74931827 6.68732957 -6.53418821 7.35560222 -8.22265625 9.69140625 C-9.20324656 11.43116325 -10.10688055 13.2137611 -11 15 C-11.66 14.67 -12.32 14.34 -13 14 C-11.40958642 7.43954396 -5.34588597 3.56392398 0 0 Z " fill="#0A3C63" transform="translate(132,70)"/>
<path d="M0 0 C2.25998595 3.59462331 2.20868087 6.56595675 2.125 10.75 C2.10695313 11.92046875 2.08890625 13.0909375 2.0703125 14.296875 C2.03550781 15.63492187 2.03550781 15.63492187 2 17 C1.01 17 0.02 17 -1 17 C-1.02684679 14.35409986 -1.04676357 11.70846904 -1.0625 9.0625 C-1.07087891 8.30775391 -1.07925781 7.55300781 -1.08789062 6.77539062 C-1.09652441 4.85005687 -1.05224333 2.92464419 -1 1 C-0.67 0.67 -0.34 0.34 0 0 Z " fill="#033969" transform="translate(293,254)"/>
<path d="M0 0 C0.33 0 0.66 0 1 0 C1.33 5.61 1.66 11.22 2 17 C0.68 17 -0.64 17 -2 17 C-1.85941524 14.54126232 -1.71277001 12.08314825 -1.5625 9.625 C-1.52318359 8.92632812 -1.48386719 8.22765625 -1.44335938 7.5078125 C-1.11328125 2.2265625 -1.11328125 2.2265625 0 0 Z " fill="#033865" transform="translate(320,254)"/>
<path d="M0 0 C0.99 0 1.98 0 3 0 C3.29036649 3.38115651 3.44908891 6.62919149 3 10 C0.5 12.625 0.5 12.625 -2 14 C-2 10.95438718 -1.5626816 8.30174598 -1 5.3125 C-0.814375 4.31863281 -0.62875 3.32476562 -0.4375 2.30078125 C-0.2209375 1.16189453 -0.2209375 1.16189453 0 0 Z " fill="#063B68" transform="translate(345,255)"/>
<path d="M0 0 C1.53125566 2.29688349 3.02961611 4.60192071 4.5 6.9375 C4.9228125 7.60652344 5.345625 8.27554688 5.78125 8.96484375 C6.9611942 10.93519929 8.00113783 12.93291023 9 15 C7.02 15 5.04 15 3 15 C3.99 14.67 4.98 14.34 6 14 C3.34209561 10.78253679 2.58834962 10.91766992 -2 10 C-1.34 6.7 -0.68 3.4 0 0 Z " fill="#18689C" transform="translate(75,164)"/>
<path d="M0 0 C-1.52717155 4.58151466 -3.59214011 7.79607006 -8 10 C-10.16410684 10.12244289 -12.33246523 10.17551142 -14.5 10.1875 C-15.6653125 10.20167969 -16.830625 10.21585938 -18.03125 10.23046875 C-21 10 -21 10 -23 8 C-22.38253906 8.02320312 -21.76507813 8.04640625 -21.12890625 8.0703125 C-15.12117697 8.19833108 -9.79750618 7.56840747 -4 6 C-4 4.35 -4 2.7 -4 1 C-2 0 -2 0 0 0 Z " fill="#11395B" transform="translate(253,90)"/>
<path d="M0 0 C0.66 0 1.32 0 2 0 C3.95031692 4.07723734 4.21581971 7.31692422 4.125 11.8125 C4.10695312 12.97394531 4.08890625 14.13539062 4.0703125 15.33203125 C4.04710937 16.21246094 4.02390625 17.09289062 4 18 C3.67 18 3.34 18 3 18 C2.97421875 17.37351562 2.9484375 16.74703125 2.921875 16.1015625 C2.86515625 15.28429688 2.8084375 14.46703125 2.75 13.625 C2.70359375 12.81289063 2.6571875 12.00078125 2.609375 11.1640625 C2.22003286 8.81692416 2.22003286 8.81692416 0 7.84375 C-0.66 7.5653125 -1.32 7.286875 -2 7 C-2.75 4.875 -2.75 4.875 -3 3 C-2.34 3 -1.68 3 -1 3 C-0.67 2.01 -0.34 1.02 0 0 Z " fill="#116BA5" transform="translate(164,23)"/>
<path d="M0 0 C5.25830521 -0.31549831 8.47929032 0.26654764 13 3 C15 5 15 5 15 8 C12.75 9.8125 12.75 9.8125 10 11 C7.6875 10.1875 7.6875 10.1875 6 9 C6.99 8.67 7.98 8.34 9 8 C9.33 7.34 9.66 6.68 10 6 C10.99 6.33 11.98 6.66 13 7 C10.71902875 3.57854312 9.8064493 3.21114296 6 2 C4.0075675 1.62406934 2.0081326 1.28020455 0 1 C0 0.67 0 0.34 0 0 Z " fill="#0F395A" transform="translate(297,160)"/>
<path d="M0 0 C5.75 -0.125 5.75 -0.125 8 1 C8.72693904 2.97888961 9.39816251 4.97954558 10 7 C8.5 9 8.5 9 6 11 C3.24128373 11.35800135 0.79902476 11.18660165 -2 11 C-2 8.03 -2 5.06 -2 2 C-1.67 2 -1.34 2 -1 2 C-1 4.64 -1 7.28 -1 10 C1.31 9.34 3.62 8.68 6 8 C6 6.35 6 4.7 6 3 C4.02 2.34 2.04 1.68 0 1 C0 0.67 0 0.34 0 0 Z " fill="#143C5B" transform="translate(328,69)"/>
<path d="M0 0 C0.66 0.33 1.32 0.66 2 1 C1.67 2.98 1.34 4.96 1 7 C0.34 6.67 -0.32 6.34 -1 6 C-1.33 6.99 -1.66 7.98 -2 9 C-2.99 8.67 -3.98 8.34 -5 8 C-5.33 6.35 -5.66 4.7 -6 3 C-4.03533587 1.93224776 -2.03144641 0.93446535 0 0 Z " fill="#0B365D" transform="translate(291,186)"/>
<path d="M0 0 C3.75657223 0.26208643 5.7453102 0.81322748 8.8125 3.0625 C11.71882423 6.96527825 11.92192571 9.1593939 12 14 C11.01 15.485 11.01 15.485 10 17 C9.89042969 16.31292969 9.78085937 15.62585938 9.66796875 14.91796875 C9.50941406 14.01691406 9.35085938 13.11585938 9.1875 12.1875 C9.03667969 11.29417969 8.88585937 10.40085938 8.73046875 9.48046875 C7.936159 6.78321371 7.03259853 5.85439811 5 4 C5 3.34 5 2.68 5 2 C3.35 1.67 1.7 1.34 0 1 C0 0.67 0 0.34 0 0 Z " fill="#113959" transform="translate(301,175)"/>
<path d="M0 0 C0.33 0.66 0.66 1.32 1 2 C0.67 2.99 0.34 3.98 0 5 C-0.66 5 -1.32 5 -2 5 C-1.67 7.31 -1.34 9.62 -1 12 C-2.32 12.33 -3.64 12.66 -5 13 C-5.66 11.35 -6.32 9.7 -7 8 C-4.69 5.36 -2.38 2.72 0 0 Z " fill="#076DAD" transform="translate(128,15)"/>
<path d="M0 0 C3.3 0 6.6 0 10 0 C10.33 0.99 10.66 1.98 11 3 C8.23735711 3.59732819 5.83967231 4 3 4 C2.67 4.66 2.34 5.32 2 6 C1.34 4.02 0.68 2.04 0 0 Z " fill="#0F3A5C" transform="translate(251,161)"/>
<path d="M0 0 C0.99 0.33 1.98 0.66 3 1 C4.6875 4.5625 4.6875 4.5625 6 8 C8.97 8 11.94 8 15 8 C15.33 8.99 15.66 9.98 16 11 C12.52025513 11.55703426 9.45576558 11.77651875 6 11 C3.27552262 8.36598379 1.53339966 5.45326589 0 2 C0 1.34 0 0.68 0 0 Z " fill="#133A56" transform="translate(451,138)"/>
<path d="M0 0 C1.875 0.1875 1.875 0.1875 4 1 C6.52058002 5.08093909 6.05215625 8.44065626 5 13 C4.01 13.495 4.01 13.495 3 14 C3 11.03 3 8.06 3 5 C2.34 5 1.68 5 1 5 C0.67 3.35 0.34 1.7 0 0 Z " fill="#033765" transform="translate(212,252)"/>
<path d="M0 0 C2.01920337 1.30406884 4.01924973 2.63823419 6 4 C6 4.33 6 4.66 6 5 C3.66666667 5 1.33333333 5 -1 5 C-2.34882408 5.63474075 -3.6846659 6.29848848 -5 7 C-5.33 5.68 -5.66 4.36 -6 3 C-4.02 2.01 -2.04 1.02 0 0 Z " fill="#103A5C" transform="translate(228,137)"/>
<path d="M0 0 C1.65 0 3.3 0 5 0 C5.66 1.65 6.32 3.3 7 5 C4.6875 5.625 4.6875 5.625 2 6 C1.01 5.34 0.02 4.68 -1 4 C-0.67 2.68 -0.34 1.36 0 0 Z " fill="#013B6C" transform="translate(228,126)"/>
<path d="M0 0 C0.66 0.33 1.32 0.66 2 1 C0.25 4.875 0.25 4.875 -2 6 C-2.37552165 12.31268603 -2.37552165 12.31268603 0 18 C-3 17 -3 17 -4.25 14.9375 C-5.237005 11.07173043 -5.14326778 7.82954733 -4 4 C-1.9375 1.5 -1.9375 1.5 0 0 Z " fill="#113857" transform="translate(228,113)"/>
<path d="M0 0 C0.33 0 0.66 0 1 0 C1.84098656 4.01804691 2.05404945 7.01803543 1 11 C0.34 9.68 -0.32 8.36 -1 7 C-4.60992379 7.65585189 -4.60992379 7.65585189 -8 9 C-6.71700242 6.13792848 -5.469364 3.9754912 -3 2 C-2.01 2 -1.02 2 0 2 C0 1.34 0 0.68 0 0 Z " fill="#09395F" transform="translate(285,83)"/>
<path d="M0 0 C0.66 0 1.32 0 2 0 C0.63016497 3.16115776 0.0109362 3.9927092 -3 6 C-9.04908447 7.23032226 -13.11352129 6.78696675 -19 5 C-16.05622325 4.13222 -13.61770397 3.96615057 -10.5625 4.125 C-6.54593978 4.18455361 -4.24000169 3.53125132 -1 1 C-0.67 0.67 -0.34 0.34 0 0 Z " fill="#113C57" transform="translate(309,192)"/>
<path d="M0 0 C3.3 0 6.6 0 10 0 C8.50829734 4.9723422 6.39542583 9.41845739 4 14 C3.375 12.1875 3.375 12.1875 3 10 C3.66 9.01 4.32 8.02 5 7 C5.38499891 5.34450469 5.72793135 3.6777567 6 2 C3.03 1.505 3.03 1.505 0 1 C0 0.67 0 0.34 0 0 Z " fill="#163D5F" transform="translate(273,161)"/>
<path d="M0 0 C0.99 0 1.98 0 3 0 C2.1875 1.9375 2.1875 1.9375 1 4 C-2.19156448 5.06385483 -4.58497476 5.16677982 -7.9375 5.1875 C-9.49791016 5.20876953 -9.49791016 5.20876953 -11.08984375 5.23046875 C-13.95046613 5.00392282 -15.57670151 4.47733619 -18 3 C-16.0625 2.4375 -16.0625 2.4375 -14 2 C-13.67 2.33 -13.34 2.66 -13 3 C-11.5444063 3.09858603 -10.08392081 3.12972143 -8.625 3.125 C-7.43777344 3.12886719 -7.43777344 3.12886719 -6.2265625 3.1328125 C-3.82656504 3.08617666 -3.82656504 3.08617666 -1 2 C-0.67 1.34 -0.34 0.68 0 0 Z " fill="#123B58" transform="translate(244,144)"/>
<path d="M0 0 C1.32 0 2.64 0 4 0 C4 3.3 4 6.6 4 10 C2.35 10 0.7 10 -1 10 C-1 8.35 -1 6.7 -1 5 C0.32 5 1.64 5 3 5 C2.2236068 1.9254644 2.2236068 1.9254644 0 0 Z " fill="#032D55" transform="translate(369,261)"/>
<path d="M0 0 C1.98 0 3.96 0 6 0 C6 4 6 4 5 7 C3.68 6.67 2.36 6.34 1 6 C0.67 4.02 0.34 2.04 0 0 Z " fill="#023B69" transform="translate(354,91)"/>
<path d="M0 0 C1.65 0 3.3 0 5 0 C-0.78135613 5.2557783 -6.31740872 6.31357515 -14 6 C-14 5.67 -14 5.34 -14 5 C-9.49646738 3.24252386 -5.82360189 2.80705592 -1 3 C-0.67 2.01 -0.34 1.02 0 0 Z " fill="#19659A" transform="translate(154,54)"/>
<path d="M0 0 C-0.33 0.99 -0.66 1.98 -1 3 C-2.98 3 -4.96 3 -7 3 C-6.67 3.99 -6.34 4.98 -6 6 C-9.96 5.67 -13.92 5.34 -18 5 C-18 4.67 -18 4.34 -18 4 C-15.37569876 3.3304744 -12.75063343 2.66426282 -10.125 2 C-9.00544922 1.71382812 -9.00544922 1.71382812 -7.86328125 1.421875 C-2.2265625 0 -2.2265625 0 0 0 Z " fill="#0F3D5A" transform="translate(76,190)"/>
<path d="M0 0 C1.9451 2.91765 2.45276317 4.62537285 3 8 C-0.3 8 -3.6 8 -7 8 C-6.67 7.01 -6.34 6.02 -6 5 C-4.35 5 -2.7 5 -1 5 C-0.67 3.35 -0.34 1.7 0 0 Z " fill="#143753" transform="translate(430,141)"/>
<path d="M0 0 C0.33 0 0.66 0 1 0 C1.268125 1.11375 1.53625 2.2275 1.8125 3.375 C2.65809019 7.21840951 2.65809019 7.21840951 6 9 C8.05709596 9.24055468 8.05709596 9.24055468 10.1875 9.125 C11.445625 9.08375 12.70375 9.0425 14 9 C13.67 9.99 13.34 10.98 13 12 C9.7 11.67 6.4 11.34 3 11 C3 10.34 3 9.68 3 9 C2.01 8.67 1.02 8.34 0 8 C0 5.36 0 2.72 0 0 Z " fill="#113B5C" transform="translate(261,131)"/>
<path d="M0 0 C1.65 1.65 3.3 3.3 5 5 C3.02 6.32 1.04 7.64 -1 9 C-2.32 8.34 -3.64 7.68 -5 7 C-4.360625 6.5875 -3.72125 6.175 -3.0625 5.75 C-0.79009069 3.82189513 -0.39803561 2.88575819 0 0 Z " fill="#133C5B" transform="translate(373,64)"/>
<path d="M0 0 C0.33 0.99 0.66 1.98 1 3 C0.34 4.32 -0.32 5.64 -1 7 C-3.97 7 -6.94 7 -10 7 C-9.67 6.01 -9.34 5.02 -9 4 C-8.2575 4.0825 -7.515 4.165 -6.75 4.25 C-3.21842973 3.92894816 -2.23369636 2.64734383 0 0 Z " fill="#133855" transform="translate(407,142)"/>
<path d="M0 0 C4.74908547 2.80627778 7.19372222 5.25091453 10 10 C9.67 10.66 9.34 11.32 9 12 C6.525 11.01 6.525 11.01 4 10 C4.66 9.67 5.32 9.34 6 9 C4.19587357 5.73539027 3.16605307 4.11070205 0 2 C0 1.34 0 0.68 0 0 Z " fill="#0C3659" transform="translate(278,112)"/>
<path d="M0 0 C0 0.66 0 1.32 0 2 C-1.8871875 2.12375 -1.8871875 2.12375 -3.8125 2.25 C-7.21703854 2.68117547 -7.21703854 2.68117547 -9.9375 4.75 C-11.08174212 7.17310095 -11.63210249 9.35113796 -12 12 C-14 9 -14 9 -14 5 C-9.4578354 0.70335781 -6.14050433 -0.13645565 0 0 Z " fill="#103859" transform="translate(274,118)"/>
<path d="M0 0 C3.65316671 1.24976756 4.78065836 1.67098753 7 5 C7.265625 7.19140625 7.265625 7.19140625 7.25 9.5625 C7.25515625 10.34753906 7.2603125 11.13257812 7.265625 11.94140625 C7 14 7 14 5 16 C4.96132813 14.77023438 4.96132813 14.77023438 4.921875 13.515625 C4.86515625 12.43796875 4.8084375 11.3603125 4.75 10.25 C4.70359375 9.18265625 4.6571875 8.1153125 4.609375 7.015625 C3.89410286 3.47594492 2.74415095 2.26118038 0 0 Z " fill="#143C5D" transform="translate(456,113)"/>
<path d="M0 0 C1.65 0 3.3 0 5 0 C4.5155542 0.40323486 4.0311084 0.80646973 3.53198242 1.22192383 C1.63082835 3.42847445 1.5848884 4.57032554 1.48828125 7.44921875 C1.45283203 8.29677734 1.41738281 9.14433594 1.38085938 10.01757812 C1.35830078 10.89865234 1.33574219 11.77972656 1.3125 12.6875 C1.27833984 13.58017578 1.24417969 14.47285156 1.20898438 15.39257812 C1.12654352 17.59492671 1.05738449 19.79687938 1 22 C0.67 22 0.34 22 0 22 C0 14.74 0 7.48 0 0 Z " fill="#173956" transform="translate(291,249)"/>
<path d="M0 0 C1.65 0 3.3 0 5 0 C3.515 5.445 3.515 5.445 2 11 C1.67 11 1.34 11 1 11 C0.67 7.37 0.34 3.74 0 0 Z " fill="#103C5C" transform="translate(432,249)"/>
<path d="M0 0 C2.64 0 5.28 0 8 0 C7.67 2.31 7.34 4.62 7 7 C6.34 5.68 5.68 4.36 5 3 C3.35 3.66 1.7 4.32 0 5 C0 3.35 0 1.7 0 0 Z " fill="#054070" transform="translate(375,170)"/>
<path d="M0 0 C-1.875 3.875 -1.875 3.875 -3 5 C-4.66617115 5.04063832 -6.33388095 5.042721 -8 5 C-8 6.98 -8 8.96 -8 11 C-8.33 11 -8.66 11 -9 11 C-9 8.69 -9 6.38 -9 4 C-2.25 0 -2.25 0 0 0 Z " fill="#17689C" transform="translate(68,101)"/>
<path d="M0 0 C0.66 0.33 1.32 0.66 2 1 C2 1.66 2 2.32 2 3 C2.66 3.33 3.32 3.66 4 4 C2.68 5.32 1.36 6.64 0 8 C-0.66 7.67 -1.32 7.34 -2 7 C-2 3 -2 3 0 0 Z " fill="#063557" transform="translate(399,263)"/>
<path d="M0 0 C0.66 0.33 1.32 0.66 2 1 C0.25447936 2.15264553 -1.49660196 3.29687327 -3.25 4.4375 C-4.22453125 5.07558594 -5.1990625 5.71367187 -6.203125 6.37109375 C-8.58381615 7.7576136 -10.31780307 8.546581 -13 9 C-12.67 8.01 -12.34 7.02 -12 6 C-10.30031022 5.2155278 -8.59403561 4.43979198 -6.84765625 3.765625 C-4.77299027 2.96475697 -4.77299027 2.96475697 -2.1875 1.25 C-1.1046875 0.63125 -1.1046875 0.63125 0 0 Z " fill="#113857" transform="translate(137,198)"/>
<path d="M0 0 C6.75 0.75 6.75 0.75 9 3 C6.8125 4.1875 6.8125 4.1875 4 5 C1.1875 3.625 1.1875 3.625 -1 2 C-0.67 1.34 -0.34 0.68 0 0 Z " fill="#023D6D" transform="translate(432,193)"/>
<path d="M0 0 C0.66 0.33 1.32 0.66 2 1 C0.68 3.31 -0.64 5.62 -2 8 C-2.99 7.67 -3.98 7.34 -5 7 C-5.99 7.495 -5.99 7.495 -7 8 C-7.66 7.34 -8.32 6.68 -9 6 C-6.03 4.02 -3.06 2.04 0 0 Z " fill="#0E3C60" transform="translate(89,181)"/>
<path d="M0 0 C1.98 0 3.96 0 6 0 C6.33 1.65 6.66 3.3 7 5 C6.01 5.33 5.02 5.66 4 6 C1.8125 4.75 1.8125 4.75 0 3 C0 2.01 0 1.02 0 0 Z " fill="#013865" transform="translate(91,263)"/>
<path d="M0 0 C0.66 0.33 1.32 0.66 2 1 C0.55218207 4.44428265 -1.27694609 6.36130962 -4.125 8.75 C-5.21167969 9.67039063 -5.21167969 9.67039063 -6.3203125 10.609375 C-6.87460938 11.06828125 -7.42890625 11.5271875 -8 12 C-8 11.01 -8 10.02 -8 9 C-7.01 8.34 -6.02 7.68 -5 7 C-4.67 6.01 -4.34 5.02 -4 4 C-3.01 4 -2.02 4 -1 4 C-0.67 2.68 -0.34 1.36 0 0 Z " fill="#0D3958" transform="translate(148,186)"/>
<path d="M0 0 C1 3 1 3 0.22265625 4.82421875 C-0.8515625 6.54947917 -1.92578125 8.27473958 -3 10 C-3.66 9.67 -4.32 9.34 -5 9 C-4.50769231 3.46153846 -4.50769231 3.46153846 -1.9375 1.125 C-1.298125 0.75375 -0.65875 0.3825 0 0 Z " fill="#0A3860" transform="translate(161,168)"/>
<path d="M0 0 C0.33 0.66 0.66 1.32 1 2 C-2.3 2.33 -5.6 2.66 -9 3 C-8.95875 4.11375 -8.9175 5.2275 -8.875 6.375 C-9 10 -9 10 -11 12 C-11.02688151 10.35425434 -11.04634123 8.70838587 -11.0625 7.0625 C-11.07410156 6.14597656 -11.08570313 5.22945312 -11.09765625 4.28515625 C-11 2 -11 2 -10 1 C-8.31816052 0.76712992 -6.6287584 0.58735834 -4.9375 0.4375 C-3.55884766 0.31181641 -3.55884766 0.31181641 -2.15234375 0.18359375 C-1.44207031 0.12300781 -0.73179687 0.06242188 0 0 Z " fill="#0B3B5F" transform="translate(312,132)"/>
<path d="M0 0 C1.98 0 3.96 0 6 0 C6.33 0.99 6.66 1.98 7 3 C6.34 3 5.68 3 5 3 C5 3.66 5 4.32 5 5 C3.35 4.67 1.7 4.34 0 4 C0 2.68 0 1.36 0 0 Z " fill="#023A68" transform="translate(261,91)"/>
<path d="M0 0 C2 2 2 2 2.3125 5.3125 C1.98510557 9.17575427 1.38898655 10.99164656 -1 14 C-1.99 14.33 -2.98 14.66 -4 15 C-4 14.01 -4 13.02 -4 12 C-3.01 12 -2.02 12 -1 12 C-0.36605303 7.95858806 0.12404452 4.0934693 0 0 Z " fill="#123C5B" transform="translate(343,68)"/>
<path d="M0 0 C1.44414385 2.88828771 0.97280874 5.53041489 0.83984375 8.7109375 C1.01791849 11.25610333 1.72643078 12.81245757 3 15 C1.0546875 14.2734375 1.0546875 14.2734375 -1 13 C-1.6796875 10.9765625 -1.6796875 10.9765625 -1.875 8.625 C-1.95492188 7.85414062 -2.03484375 7.08328125 -2.1171875 6.2890625 C-1.98566262 3.7199432 -1.29480364 2.19815501 0 0 Z " fill="#123855" transform="translate(262,67)"/>
<path d="M0 0 C1.8871875 0.0309375 1.8871875 0.0309375 3.8125 0.0625 C3.8125 0.3925 3.8125 0.7225 3.8125 1.0625 C2.6059375 1.248125 2.6059375 1.248125 1.375 1.4375 C0.529375 1.64375 -0.31625 1.85 -1.1875 2.0625 C-1.5175 2.7225 -1.8475 3.3825 -2.1875 4.0625 C-5.1875 4.0625 -8.1875 4.0625 -11.1875 4.0625 C-7.47611183 1.11898524 -4.747758 -0.0778321 0 0 Z " fill="#143C5D" transform="translate(274.1875,61.9375)"/>
<path d="M0 0 C-0.75 1.9375 -0.75 1.9375 -2 4 C-4 4.875 -4 4.875 -6 5 C-6.66 4.34 -7.32 3.68 -8 3 C-5.53387212 -0.1151089 -3.89156016 -0.31553191 0 0 Z " fill="#133B5F" transform="translate(164,249)"/>
<path d="M0 0 C1.43410153 3.78819273 0.51009497 6.06521279 -0.9375 9.75 C-1.31777344 10.73484375 -1.69804687 11.7196875 -2.08984375 12.734375 C-2.39019531 13.48203125 -2.69054687 14.2296875 -3 15 C-3.33 15 -3.66 15 -4 15 C-4.33 13.02 -4.66 11.04 -5 9 C-4.01 9 -3.02 9 -2 9 C-1.7834375 7.0509375 -1.7834375 7.0509375 -1.5625 5.0625 C-1.125 1.125 -1.125 1.125 0 0 Z " fill="#0C3A5D" transform="translate(166,153)"/>
<path d="M0 0 C0.66 0.33 1.32 0.66 2 1 C1.67 1.66 1.34 2.32 1 3 C0.64386903 4.66194453 0.30791692 6.328451 0 8 C-0.99 8 -1.98 8 -3 8 C-3.36923077 3.44615385 -3.36923077 3.44615385 -1.5 1.1875 C-1.005 0.795625 -0.51 0.40375 0 0 Z " fill="#053561" transform="translate(107,255)"/>
<path d="M0 0 C1.485 0.99 1.485 0.99 3 2 C5.64632287 1.6878236 5.64632287 1.6878236 8 1 C7.01 1.495 7.01 1.495 6 2 C6 2.66 6 3.32 6 4 C5.071875 4.12375 5.071875 4.12375 4.125 4.25 C1.81562433 4.81258459 1.81562433 4.81258459 0.75 7.0625 C0.5025 7.701875 0.255 8.34125 0 9 C-0.87890625 2.84765625 -0.87890625 2.84765625 -1 1 C-0.67 0.67 -0.34 0.34 0 0 Z " fill="#043669" transform="translate(305,251)"/>
<path d="M0 0 C5.4389165 -0.21755666 9.87080814 -0.10428384 15 2 C12.42786866 3.61949011 11.32330841 4.04408751 8.25 3.625 C7.5075 3.41875 6.765 3.2125 6 3 C6 2.67 6 2.34 6 2 C3.03 1.505 3.03 1.505 0 1 C0 0.67 0 0.34 0 0 Z " fill="#186EA4" transform="translate(139,10)"/>
<path d="M0 0 C6.4 -0.36923077 6.4 -0.36923077 9.4375 1.5 C9.953125 1.995 10.46875 2.49 11 3 C9.02 3.99 9.02 3.99 7 5 C6.67 4.34 6.34 3.68 6 3 C5.01 3 4.02 3 3 3 C3 2.34 3 1.68 3 1 C2.01 1.33 1.02 1.66 0 2 C0 1.34 0 0.68 0 0 Z " fill="#0B4067" transform="translate(299,249)"/>
<path d="M0 0 C0 0.99 0 1.98 0 3 C-1.98 3.66 -3.96 4.32 -6 5 C-6.33 3.68 -6.66 2.36 -7 1 C-4.53721199 -0.231394 -2.7204945 -0.07159196 0 0 Z " fill="#003B6C" transform="translate(372,94)"/>
<path d="M0 0 C0.33 0.99 0.66 1.98 1 3 C2.98 2.34 4.96 1.68 7 1 C6.67 2.32 6.34 3.64 6 5 C3.69 5 1.38 5 -1 5 C-0.67 3.35 -0.34 1.7 0 0 Z " fill="#053765" transform="translate(273,267)"/>
<path d="M0 0 C1.41623216 -0.05447047 2.83308191 -0.09300508 4.25 -0.125 C5.03890625 -0.14820313 5.8278125 -0.17140625 6.640625 -0.1953125 C9.20731941 0.0171622 10.7916067 0.71345895 13 2 C10.6875 3.125 10.6875 3.125 8 4 C7.01 3.34 6.02 2.68 5 2 C3.34450469 1.61500109 1.6777567 1.27206865 0 1 C0 0.67 0 0.34 0 0 Z " fill="#0E3452" transform="translate(234,167)"/>
<path d="M0 0 C1.5625 1.6875 1.5625 1.6875 3 4 C2.6875 6.75 2.6875 6.75 2 9 C-0.45484649 6.86535088 -1.68134222 5.29279709 -2 2 C-1.34 1.34 -0.68 0.68 0 0 Z " fill="#0E699F" transform="translate(19,162)"/>
<path d="M0 0 C0.66 0 1.32 0 2 0 C2.433125 1.11375 2.86625 2.2275 3.3125 3.375 C4.69911119 7.17512334 4.69911119 7.17512334 8 9 C8 9.66 8 10.32 8 11 C3.78926767 9.49616703 2.16762883 6.79335044 0 3 C0 2.01 0 1.02 0 0 Z " fill="#103757" transform="translate(253,136)"/>
<path d="M0 0 C0.33 0.99 0.66 1.98 1 3 C1.66 3 2.32 3 3 3 C4.38232443 4.62626404 5.71937515 6.2925002 7 8 C5.02 8.99 5.02 8.99 3 10 C2.67 8.02 2.34 6.04 2 4 C1.01 4.33 0.02 4.66 -1 5 C-0.67 3.35 -0.34 1.7 0 0 Z " fill="#0A385E" transform="translate(454,122)"/>
<path d="M0 0 C0.33 0.66 0.66 1.32 1 2 C0.236875 2.7425 -0.52625 3.485 -1.3125 4.25 C-3.4393702 6.4263323 -5.2559956 8.52167796 -7 11 C-7 5.90986028 -5.39163174 4.63389115 -2 1 C-1.34 0.67 -0.68 0.34 0 0 Z " fill="#14395A" transform="translate(127,74)"/>
<path d="M0 0 C0.66 0 1.32 0 2 0 C1.67 1.98 1.34 3.96 1 6 C0.01 6.33 -0.98 6.66 -2 7 C-2.125 4.625 -2.125 4.625 -2 2 C-1.34 1.34 -0.68 0.68 0 0 Z " fill="#023966" transform="translate(284,260)"/>
<path d="M0 0 C2.475 0.495 2.475 0.495 5 1 C4.67 2.32 4.34 3.64 4 5 C2.68 4.67 1.36 4.34 0 4 C0 2.68 0 1.36 0 0 Z " fill="#093E62" transform="translate(406,249)"/>
<path d="M0 0 C0.99 0 1.98 0 3 0 C2.03628506 2.40928735 1.34789837 3.76007009 -0.8125 5.25 C-3.32321365 6.11081611 -5.36348649 6.14647297 -8 6 C-5 4 -5 4 -2.875 3 C-0.82955462 2.14139842 -0.82955462 2.14139842 0 0 Z " fill="#0F3755" transform="translate(282,94)"/>
<path d="M0 0 C1.98 0.99 1.98 0.99 4 2 C4 3.32 4 4.64 4 6 C3.01 6 2.02 6 1 6 C0.67 6.99 0.34 7.98 0 9 C0 6.03 0 3.06 0 0 Z " fill="#133958" transform="translate(265,256)"/>
<path d="M0 0 C0.66 0.33 1.32 0.66 2 1 C1.67 1.66 1.34 2.32 1 3 C3.31 3 5.62 3 8 3 C8 3.33 8 3.66 8 4 C0.25 5.125 0.25 5.125 -2 4 C-2 3.01 -2 2.02 -2 1 C-1.34 0.67 -0.68 0.34 0 0 Z " fill="#113C5C" transform="translate(271,249)"/>
<path d="M0 0 C0.66 0.33 1.32 0.66 2 1 C2 1.66 2 2.32 2 3 C3.98 3.66 5.96 4.32 8 5 C4.52128379 6.15957207 3.65780355 5.77456651 0.3125 4.5625 C-0.49574219 4.27503906 -1.30398438 3.98757812 -2.13671875 3.69140625 C-2.75160156 3.46324219 -3.36648438 3.23507813 -4 3 C-2.68 2.01 -1.36 1.02 0 0 Z " fill="#143C59" transform="translate(428,186)"/>
<path d="M0 0 C2.97 0.495 2.97 0.495 6 1 C5.34 3.64 4.68 6.28 4 9 C2.47700477 6.06279492 1.19899698 3.0831351 0 0 Z " fill="#0A385C" transform="translate(414,121)"/>
<path d="M0 0 C3 2 3 2 3.6875 4.625 C3.790625 5.40875 3.89375 6.1925 4 7 C3.01 7 2.02 7 1 7 C-0.0625 5.1875 -0.0625 5.1875 -1 3 C-0.67 2.01 -0.34 1.02 0 0 Z " fill="#0A6AA3" transform="translate(34,174)"/>
<path d="M0 0 C1.98 0.495 1.98 0.495 4 1 C3.67 2.32 3.34 3.64 3 5 C2.01 5 1.02 5 0 5 C0 3.33333333 0 1.66666667 0 0 Z " fill="#016EB3" transform="translate(30,173)"/>
<path d="M0 0 C0.78375 0.04125 1.5675 0.0825 2.375 0.125 C2 2.0625 2 2.0625 1.375 4.125 C0.385 4.62 0.385 4.62 -0.625 5.125 C-1.285 4.465 -1.945 3.805 -2.625 3.125 C-3.285 2.795 -3.945 2.465 -4.625 2.125 C-2.625 0.125 -2.625 0.125 0 0 Z " fill="#013C6E" transform="translate(259.625,163.875)"/>
<path d="M0 0 C0.99 0.33 1.98 0.66 3 1 C3.625 4.375 3.625 4.375 4 8 C3.34 8.66 2.68 9.32 2 10 C1.34 6.7 0.68 3.4 0 0 Z " fill="#0F395A" transform="translate(347,112)"/>
<path d="M0 0 C0 2.31 0 4.62 0 7 C-0.66 7 -1.32 7 -2 7 C-2.185625 6.071875 -2.185625 6.071875 -2.375 5.125 C-2.87197356 2.80879168 -2.87197356 2.80879168 -5 1 C-3 0 -3 0 0 0 Z " fill="#216B99" transform="translate(73,99)"/>
<path d="M0 0 C0.721875 0.144375 1.44375 0.28875 2.1875 0.4375 C3.5796875 0.7159375 3.5796875 0.7159375 5 1 C6.66666667 1.33333333 8.33333333 1.66666667 10 2 C10 2.66 10 3.32 10 4 C3.47692308 3.38461538 3.47692308 3.38461538 1.0625 1.4375 C0.711875 0.963125 0.36125 0.48875 0 0 Z " fill="#1A679A" transform="translate(130,55)"/>
<path d="M0 0 C-0.66 2.97 -1.32 5.94 -2 9 C-3 5 -3 5 -3 4 C-3.66 4 -4.32 4 -5 4 C-5 3.01 -5 2.02 -5 1 C-2 0 -2 0 0 0 Z " fill="#0E3D5D" transform="translate(83,258)"/>
<path d="M0 0 C0.66 0 1.32 0 2 0 C1.67 2.31 1.34 4.62 1 7 C0.34 6.67 -0.32 6.34 -1 6 C-1 5.34 -1 4.68 -1 4 C-1.66 3.67 -2.32 3.34 -3 3 C-2.01 2.67 -1.02 2.34 0 2 C0 1.34 0 0.68 0 0 Z " fill="#053968" transform="translate(329,254)"/>
<path d="M0 0 C2.31 0 4.62 0 7 0 C7 0.66 7 1.32 7 2 C4.69 2.33 2.38 2.66 0 3 C0 2.01 0 1.02 0 0 Z " fill="#083C66" transform="translate(333,249)"/>
<path d="M0 0 C2.5654594 2.5654594 2.54046087 4.47686668 3 8 C2.01 8.33 1.02 8.66 0 9 C-1.53445094 5.93109813 -0.54984289 3.29905734 0 0 Z " fill="#0B3555" transform="translate(87,241)"/>
<path d="M0 0 C0.66 0.33 1.32 0.66 2 1 C2.40729228 3.32156597 2.74438677 5.6568787 3 8 C2.01 7.67 1.02 7.34 0 7 C-1.125 2.25 -1.125 2.25 0 0 Z " fill="#013A67" transform="translate(69,244)"/>
<path d="M0 0 C1.32 0.33 2.64 0.66 4 1 C3.67 1.99 3.34 2.98 3 4 C0.9375 4.6875 0.9375 4.6875 -1 5 C-1.33 4.34 -1.66 3.68 -2 3 C-1.34 2.01 -0.68 1.02 0 0 Z " fill="#08375F" transform="translate(266,70)"/>
<path d="M0 0 C0.33 0.66 0.66 1.32 1 2 C0.67 2.99 0.34 3.98 0 5 C-0.66 5 -1.32 5 -2 5 C-2 5.66 -2 6.32 -2 7 C-2.99 7 -3.98 7 -5 7 C-3.70700306 4.11562221 -2.34058637 2.12780579 0 0 Z " fill="#1468A1" transform="translate(128,15)"/>
<path d="M0 0 C0.99 0.66 1.98 1.32 3 2 C2.67 3.32 2.34 4.64 2 6 C-0.475 5.01 -0.475 5.01 -3 4 C-2.01 3.34 -1.02 2.68 0 2 C0 1.34 0 0.68 0 0 Z " fill="#0E3557" transform="translate(270,265)"/>
<path d="M0 0 C0.66 0 1.32 0 2 0 C2.33 0.66 2.66 1.32 3 2 C3.66 1.34 4.32 0.68 5 0 C5 1.65 5 3.3 5 5 C3.35 5 1.7 5 0 5 C0 3.35 0 1.7 0 0 Z " fill="#0C3654" transform="translate(326,258)"/>
<path d="M0 0 C2.475 0.495 2.475 0.495 5 1 C5 1.66 5 2.32 5 3 C5.99 3.33 6.98 3.66 8 4 C7.67 4.99 7.34 5.98 7 7 C6.67 6.34 6.34 5.68 6 5 C5.175 4.690625 4.35 4.38125 3.5 4.0625 C2.675 3.711875 1.85 3.36125 1 3 C0.67 2.01 0.34 1.02 0 0 Z " fill="#0A3357" transform="translate(297,249)"/>
<path d="M0 0 C0.53625 0.226875 1.0725 0.45375 1.625 0.6875 C-3.79038462 3.76442308 -3.79038462 3.76442308 -6.75 3.375 C-7.554375 3.0346875 -7.554375 3.0346875 -8.375 2.6875 C-2.95961538 -0.38942308 -2.95961538 -0.38942308 0 0 Z " fill="#1C6A9C" transform="translate(137.375,11.3125)"/>
</svg>
